<svg xmlns="http://www.w3.org/2000/svg" width="512" height="512" viewBox="0 0 512 512">
<g>
<path d="M 137.50 486.19 C132.60,488.43 131.76,488.47 94.50,488.65 C53.74,488.84 47.74,488.45 41.43,485.23 C36.91,482.91 31.00,476.84 28.42,471.85 C26.13,467.42 25.42,457.14 27.02,451.43 C28.42,446.43 36.52,436.60 40.21,435.43 L 42.32 434.76 L 41.71 370.95 C41.69,369.19 41.68,367.48 41.66,365.81 C41.17,315.00 41.07,304.76 44.08,295.53 C44.93,292.89 46.04,290.34 47.47,286.96 C55.92,266.86 80.21,232.86 99.92,213.53 L 106.00 207.56 L 106.01 126.03 L 106.02 44.50 L 108.35 39.49 C110.89,34.04 116.46,28.54 121.65,26.37 C126.73,24.25 377.17,24.34 382.26,26.46 C387.57,28.68 391.81,32.71 394.80,38.38 L 397.50 43.50 L 397.77 137.34 L 398.05 231.17 L 401.05 233.69 C405.06,237.07 406.20,239.44 406.91,245.84 L 407.50 251.23 L 413.50 253.47 C416.80,254.70 421.62,256.65 424.22,257.81 C427.21,259.14 429.17,259.53 429.57,258.89 C429.92,258.33 432.02,256.55 434.25,254.93 C437.49,252.58 439.34,252.00 443.50,252.00 C449.51,252.00 453.41,254.37 461.26,262.82 C466.57,268.52 468.00,271.46 468.00,276.63 C468.00,280.84 466.76,283.44 462.72,287.72 L 459.67 290.93 L 462.81 297.74 C464.54,301.48 466.57,306.33 467.32,308.52 C468.67,312.41 468.82,312.51 474.45,313.13 C480.49,313.79 483.96,315.72 487.44,320.38 C489.23,322.79 489.50,324.59 489.50,334.32 C489.50,343.70 489.18,346.05 487.50,348.90 C484.37,354.20 480.80,356.31 474.12,356.80 C468.52,357.20 468.17,357.38 467.62,360.13 C467.30,361.73 465.47,366.45 463.54,370.62 L 460.03 378.21 L 463.67 382.64 C466.41,385.99 467.41,388.24 467.76,391.87 C468.37,398.16 466.91,400.76 457.73,409.82 C452.40,415.08 449.27,417.38 446.61,417.98 C441.83,419.05 437.00,417.69 433.93,414.41 C429.79,409.99 428.61,409.78 423.33,412.51 C420.67,413.88 416.02,415.86 413.00,416.92 L 407.50 418.84 L 406.76 424.67 C405.97,430.81 404.17,434.04 399.62,437.44 C397.38,439.11 395.03,439.57 387.24,439.85 C375.71,440.28 371.54,439.18 367.07,434.58 C364.22,431.64 363.61,430.15 363.10,424.97 L 362.50 418.84 L 357.00 416.91 C353.98,415.85 349.10,413.81 346.16,412.37 L 340.82 409.77 L 337.10 413.40 C332.53,417.86 327.97,419.34 322.92,417.98 C317.88,416.62 303.24,402.47 302.37,398.11 L 301.75 395.00 L 165.19 395.00 L 161.65 399.75 C159.71,402.36 156.03,407.20 153.47,410.50 C147.93,417.65 143.43,426.20 142.45,431.39 C141.80,434.88 142.02,435.39 145.33,438.12 C147.30,439.74 150.34,443.98 152.09,447.53 C154.99,453.43 155.22,454.60 154.79,461.24 C154.03,472.85 148.17,481.31 137.50,486.19 ZM 120.00 46.03 L 120.00 342.13 L 126.50 341.50 L 127.00 313.50 C127.43,289.58 127.75,285.04 129.21,282.37 C131.86,277.53 135.96,273.05 140.17,270.39 L 144.00 267.97 L 144.00 256.94 C144.00,246.56 144.15,245.76 146.45,243.45 C148.89,241.02 149.07,241.00 167.95,241.00 L 187.00 241.00 L 187.00 225.57 C187.00,212.88 187.28,209.86 188.57,208.57 C189.44,207.71 190.22,206.91 190.32,206.80 C190.42,206.70 199.27,206.36 210.00,206.05 L 229.50 205.50 L 229.78 190.85 C230.00,178.78 230.34,175.96 231.68,174.85 C232.86,173.86 238.44,173.37 252.40,173.00 L 271.50 172.50 L 271.78 160.90 C271.95,153.68 271.86,149.76 273.77,147.60 C276.20,144.85 281.89,144.97 295.54,144.77 L 314.50 144.50 L 314.79 135.53 C314.96,130.41 314.80,127.37 316.22,125.57 C318.27,122.96 323.65,122.97 338.18,123.00 C339.63,123.00 341.18,123.00 342.83,123.00 C364.24,123.00 367.57,123.21 369.17,124.65 C370.90,126.22 371.00,129.21 371.00,178.65 L 371.00 231.00 L 373.75 230.99 C375.26,230.98 378.19,230.70 380.25,230.36 L 384.00 229.74 L 384.00 139.12 C384.00,133.94 384.00,129.05 384.00,124.41 C384.01,52.74 384.02,44.16 379.96,41.27 C379.15,40.69 378.17,40.34 377.00,39.75 C373.73,38.12 365.82,38.01 254.00,38.05 C188.27,38.07 132.49,38.48 130.03,38.95 C126.97,39.54 124.68,40.80 122.78,42.92 ZM 377.71 425.37 C378.09,425.76 381.58,425.95 385.46,425.79 L 392.50 425.50 L 393.01 419.50 C393.82,410.08 395.57,408.24 408.04,403.65 C411.63,402.33 416.90,400.07 419.75,398.63 C428.03,394.43 433.22,395.13 439.77,401.34 L 443.04 404.43 L 448.68 398.80 L 454.31 393.16 L 450.08 388.35 C446.08,383.81 445.87,383.25 446.27,378.52 C446.50,375.76 448.27,369.90 450.21,365.50 C452.14,361.10 454.46,355.46 455.36,352.98 C457.55,346.92 463.38,343.00 470.20,343.00 L 475.00 343.00 L 475.00 327.00 L 470.45 327.00 C462.07,327.00 457.15,322.83 453.92,312.98 C452.76,309.45 450.50,303.98 448.90,300.81 C444.06,291.21 444.86,286.47 452.74,278.18 C453.43,277.45 454.00,276.65 454.00,276.39 C454.00,275.30 444.63,266.00 443.54,266.00 C442.88,266.00 441.26,267.18 439.92,268.63 C437.08,271.71 432.16,274.00 428.37,274.00 C426.89,274.00 421.82,272.26 417.09,270.14 C412.37,268.02 406.44,265.53 403.92,264.62 C396.66,262.00 393.60,258.08 393.00,250.69 L 392.50 244.50 L 388.02 244.18 C385.56,244.01 382.07,244.14 380.27,244.48 C377.28,245.04 377.00,245.41 376.98,248.80 C376.93,256.97 371.37,263.92 363.54,265.58 C361.87,265.93 357.35,267.76 353.50,269.65 C341.83,275.37 336.17,275.12 330.08,268.60 C328.74,267.17 327.15,266.00 326.54,266.00 C325.93,266.00 323.23,268.22 320.56,270.94 C318.03,273.50 316.69,274.72 316.58,276.03 C316.46,277.39 317.64,278.85 320.18,281.99 C320.45,282.31 320.73,282.66 321.02,283.02 C324.83,287.76 324.65,291.88 320.22,301.66 C318.01,306.52 315.64,312.30 314.95,314.50 C312.34,322.83 308.55,325.99 300.05,326.90 L 294.50 327.50 L 294.50 342.50 L 300.80 343.10 C306.07,343.61 307.63,344.22 310.34,346.85 C312.24,348.69 314.08,351.84 314.78,354.47 C315.44,356.93 317.78,362.96 319.99,367.86 C322.20,372.76 324.00,377.51 324.00,378.41 C324.00,381.35 320.97,387.42 317.96,390.54 L 315.01 393.58 L 320.49 398.99 L 325.96 404.39 L 328.23 402.30 C336.01,395.14 341.86,394.41 351.77,399.36 C355.47,401.21 360.84,403.49 363.69,404.42 C372.91,407.44 377.00,412.48 377.00,420.80 C377.00,422.93 377.32,424.98 377.71,425.37 ZM 56.56 428.76 C56.86,429.76 64.56,429.97 92.52,429.76 L 128.09 429.50 L 130.43 422.79 C133.36,414.42 136.51,409.28 146.82,396.04 C160.42,378.59 165.01,367.56 164.99,352.36 C164.99,348.04 163.43,331.47 161.54,315.55 C157.83,284.39 157.10,281.84 151.70,281.19 C149.86,280.97 148.00,281.89 145.30,284.36 L 141.50 287.84 L 141.00 319.89 C140.55,348.92 140.33,352.10 138.71,353.72 C137.17,355.26 135.03,355.50 123.07,355.50 C110.84,355.50 108.96,355.28 107.10,353.60 C105.01,351.70 105.00,351.43 105.00,290.85 C105.00,257.38 104.64,230.00 104.20,230.00 C102.01,230.00 85.53,250.40 75.52,265.50 C66.73,278.75 58.58,294.67 56.51,302.63 C55.20,307.67 55.07,316.64 55.58,367.98 C55.90,400.72 56.34,428.07 56.56,428.76 ZM 402.70 389.53 C380.43,396.57 357.71,390.50 342.01,373.32 C336.03,366.77 329.57,353.93 328.07,345.57 C321.87,311.13 346.14,279.76 380.84,277.37 C408.47,275.46 432.07,291.64 440.10,318.00 C449.15,347.74 432.17,380.22 402.70,389.53 ZM 198.57 162.93 C186.42,165.12 175.20,163.32 163.85,157.35 C145.04,147.46 134.08,129.76 134.03,109.14 C133.99,97.50 135.99,89.44 140.98,81.00 C155.72,56.12 184.57,46.86 211.91,58.23 C226.77,64.42 239.82,81.00 243.07,97.82 C246.64,116.32 239.72,136.97 225.75,149.54 C219.56,155.10 206.60,161.48 198.57,162.93 ZM 175.27 378.75 L 174.77 381.00 L 241.18 381.00 C289.65,381.00 307.91,380.69 308.74,379.86 C309.60,379.00 309.18,377.31 307.08,373.11 C305.54,370.02 303.50,365.14 302.56,362.25 L 300.84 357.00 L 296.15 357.00 C289.80,357.00 285.07,354.27 282.27,348.99 C280.40,345.45 280.00,343.11 280.00,335.84 L 280.00 327.00 L 176.77 327.00 L 177.43 329.25 C177.79,330.49 178.35,338.70 178.67,347.50 C179.17,360.89 178.98,364.56 177.52,370.00 C176.55,373.58 175.54,377.51 175.27,378.75 ZM 381.00 378.70 C381.78,379.49 393.71,378.07 396.76,376.82 C398.27,376.20 400.14,375.57 400.92,375.41 C401.70,375.25 403.50,374.30 404.92,373.30 C406.34,372.29 408.79,370.81 410.37,370.00 C420.46,364.84 430.50,343.58 428.55,331.50 C428.19,329.30 427.70,326.19 427.45,324.59 C426.83,320.56 422.76,312.04 419.89,308.78 C418.58,307.28 416.55,304.80 415.38,303.28 C414.21,301.75 409.32,298.48 404.50,296.00 L 395.75 291.50 L 385.05 291.50 C374.47,291.50 374.25,291.55 365.75,295.76 C341.36,307.85 333.70,336.47 348.89,358.83 C355.35,368.36 366.71,376.07 376.50,377.57 C378.70,377.91 380.73,378.42 381.00,378.70 ZM 286.00 159.00 L 286.00 313.00 L 300.68 313.00 L 301.94 308.75 C302.64,306.41 304.68,301.55 306.48,297.94 L 309.76 291.38 L 306.85 287.94 C301.82,281.98 300.74,279.21 301.50,274.18 C302.07,270.35 303.21,268.55 308.59,262.98 L 315.00 256.34 L 315.00 159.00 ZM 243.45 311.72 C243.81,312.67 247.51,313.00 257.97,313.00 L 272.00 313.00 L 272.00 186.95 L 257.75 187.22 L 243.50 187.50 L 243.23 248.97 C243.08,282.78 243.18,311.02 243.45,311.72 ZM 336.42 255.93 L 340.97 259.87 L 348.99 256.26 L 357.00 252.66 L 357.00 137.00 L 329.00 137.00 L 329.00 194.50 C329.00,243.86 329.20,252.00 330.44,252.00 C331.23,252.00 333.92,253.77 336.42,255.93 ZM 52.62 474.13 C55.30,474.55 74.06,474.71 94.29,474.50 C129.86,474.12 131.21,474.04 134.57,471.96 C140.70,468.17 142.88,458.59 139.04,452.30 C135.15,445.91 134.73,445.85 92.08,445.25 C54.52,444.72 53.33,444.76 48.76,446.78 C42.82,449.41 40.01,453.75 40.00,460.29 C40.00,464.47 40.49,465.60 43.87,469.23 C47.00,472.58 48.68,473.52 52.62,474.13 ZM 201.00 220.00 L 201.00 313.00 L 229.00 313.00 L 229.00 220.00 ZM 175.57 312.11 C175.90,312.65 178.50,312.96 181.34,312.80 L 186.50 312.50 L 186.50 255.50 L 174.50 255.21 L 173.85 255.19 C163.80,254.95 160.12,254.86 158.77,256.59 C158.00,257.59 158.00,259.19 158.00,261.71 L 158.00 261.99 C158.00,267.61 158.17,268.04 161.02,269.51 C164.71,271.42 169.62,278.00 171.01,282.89 C171.57,284.87 172.69,292.04 173.49,298.81 C174.30,305.58 175.23,311.57 175.57,312.11 ZM 372.55 76.55 L 370.09 79.00 L 338.68 79.00 C308.42,79.00 307.17,78.92 304.63,76.93 C302.72,75.42 302.00,73.93 302.00,71.48 C302.00,65.08 302.48,65.00 339.17,65.00 C371.84,65.00 371.89,65.00 373.44,67.22 C375.68,70.42 375.36,73.73 372.55,76.55 ZM 322.37 107.93 C319.84,109.91 318.55,110.00 292.12,109.99 C262.69,109.97 260.64,109.67 258.35,105.08 C257.08,102.52 258.10,98.19 260.31,96.79 C260.97,96.37 275.08,96.02 291.68,96.02 L 292.19 96.02 C316.74,96.00 322.92,96.00 324.48,98.68 C325.00,99.58 325.00,100.79 325.00,102.40 L 325.00 102.50 C325.00,104.93 324.28,106.42 322.37,107.93 ZM 148.39 98.77 L 147.74 102.05 L 164.62 101.77 L 181.50 101.50 L 181.77 84.63 L 182.05 67.77 L 178.27 68.47 C165.34,70.87 151.03,85.38 148.39,98.77 ZM 196.00 115.00 L 196.00 149.04 L 198.75 148.42 C212.25,145.41 225.94,131.55 228.61,118.19 L 229.25 115.00 ZM 196.75 101.44 C197.16,101.86 200.15,101.94 203.40,101.61 C206.64,101.27 213.78,101.00 219.27,101.00 L 229.25 101.00 L 228.61 97.75 C226.06,84.84 212.15,70.93 199.25,68.39 L 196.00 67.75 L 196.00 84.21 C196.00,93.26 196.34,101.01 196.75,101.44 ZM 173.89 146.64 C176.98,147.91 179.95,148.81 180.50,148.64 C181.10,148.46 181.61,141.83 181.77,132.17 L 182.05 116.00 L 165.52 116.00 C149.05,116.00 149.00,116.01 149.01,118.25 C149.03,121.96 153.58,130.58 158.12,135.51 C163.54,141.40 166.91,143.77 173.89,146.64 ZM 370.39 108.87 C368.86,109.57 361.44,110.00 351.03,110.00 C334.33,110.00 334.12,109.97 331.08,107.41 C327.59,104.47 327.13,101.28 329.75,98.08 C331.45,96.00 332.09,95.95 351.96,96.22 L 372.43 96.50 L 373.89 99.11 C375.76,102.45 374.05,107.20 370.39,108.87 ZM 295.67 76.76 C294.20,78.23 291.54,78.55 278.46,78.82 L 262.99 79.14 L 259.99 76.15 C256.45,72.61 256.30,71.16 259.07,67.63 L 261.15 65.00 L 277.38 65.00 C295.91,65.00 297.40,65.48 297.40,71.40 C297.40,73.51 296.67,75.76 295.67,76.76 Z" fill="rgb(1,2,2)"/>
<path d="M 110.50 474.31 L 111.05 446.00 L 80.48 446.00 C60.29,446.00 51.81,446.06 47.46,447.41 C47.87,447.19 48.31,446.98 48.76,446.78 C53.33,444.76 54.52,444.72 92.08,445.25 C134.73,445.85 135.15,445.91 139.04,452.30 C142.88,458.59 140.70,468.17 134.57,471.96 C131.82,473.66 130.42,474.02 110.50,474.31 ZM 52.62 474.13 C50.78,473.85 49.43,473.49 48.19,472.85 C49.42,473.47 50.76,473.80 52.62,474.06 C54.11,474.27 59.08,474.44 65.70,474.54 C58.77,474.47 53.89,474.33 52.62,474.13 ZM 40.99 454.38 C40.36,456.13 40.01,458.22 40.00,460.29 C40.01,458.07 40.33,456.11 40.99,454.38 Z" fill="rgb(1,151,152)"/>
<path d="M 110.50 474.31 C106.08,474.37 100.75,474.43 94.29,474.50 C83.64,474.61 73.41,474.62 65.70,474.54 C59.08,474.44 54.11,474.27 52.62,474.06 C50.76,473.80 49.42,473.47 48.19,472.85 L 48.19 472.85 C46.79,472.11 45.54,471.01 43.87,469.23 C40.49,465.60 40.00,464.47 40.00,460.29 C40.01,458.22 40.36,456.13 40.99,454.38 C42.12,451.39 44.26,449.10 47.46,447.41 C51.81,446.06 60.29,446.00 80.48,446.00 L 111.05 446.00 L 110.78 460.25 Z" fill="rgb(4,253,252)"/>
<path d="M 286.00 159.00 L 286.49 305.50 L 287.01 161.12 L 291.26 160.50 C296.36,159.75 310.12,160.34 311.80,161.38 C312.71,161.94 313.00,173.65 313.00,209.30 L 313.00 256.48 L 306.50 262.61 L 300.00 268.74 L 300.00 275.40 C300.00,281.99 301.59,286.33 304.73,288.30 C306.41,289.35 306.29,293.87 304.50,297.00 C303.71,298.38 303.05,300.32 303.04,301.32 C303.02,302.32 301.83,304.67 300.40,306.54 C296.36,311.84 287.65,312.58 286.70,307.70 C286.45,306.40 286.22,307.02 286.14,309.25 L 286.00 313.00 ZM 226.13 309.35 C225.02,310.68 222.89,310.99 215.13,310.97 C209.83,310.95 204.76,310.50 203.85,309.97 C202.35,309.10 202.18,304.95 202.09,266.75 C202.02,241.24 202.36,223.91 202.94,223.02 C204.40,220.78 225.07,220.18 226.85,222.32 C228.77,224.63 228.08,306.99 226.13,309.35 ZM 154.55 100.08 C153.32,101.27 150.71,101.28 151.45,100.09 C151.76,99.58 151.45,98.98 150.76,98.75 C149.76,98.42 149.75,97.82 150.71,95.91 C151.37,94.59 152.59,91.81 153.41,89.74 C154.23,87.67 155.61,85.71 156.45,85.38 C157.30,85.05 158.00,84.00 158.00,83.05 C158.00,80.92 161.06,78.00 163.29,78.00 C164.19,78.00 165.40,77.12 165.98,76.04 C166.56,74.95 168.94,73.53 171.27,72.86 C173.59,72.19 176.04,71.24 176.71,70.74 C179.36,68.73 180.00,71.31 180.00,84.02 C180.00,96.00 179.84,97.07 177.81,98.96 C175.39,101.21 173.95,101.32 163.00,100.03 C158.47,99.50 155.12,99.52 154.55,100.08 ZM 203.06 144.43 C202.34,145.29 200.69,146.00 199.38,146.00 L 197.00 146.00 L 197.00 133.07 C197.00,122.65 197.30,119.84 198.57,118.57 C199.84,117.30 202.65,117.00 213.07,117.00 C213.68,117.00 214.27,117.00 214.83,117.00 C221.86,116.99 224.85,116.99 225.68,118.32 C226.29,119.31 225.72,121.02 224.74,123.99 C224.63,124.31 224.52,124.64 224.41,124.99 C223.17,128.78 222.44,129.73 221.16,129.27 C220.25,128.95 219.82,129.04 220.21,129.47 C221.41,130.79 218.21,135.74 214.25,138.70 C212.19,140.24 209.95,142.02 209.27,142.66 C208.59,143.30 207.21,143.61 206.20,143.34 C205.19,143.08 203.77,143.57 203.06,144.43 Z" fill="rgb(51,203,51)"/>
<path d="M 201.00 220.00 L 229.00 220.00 L 229.00 313.00 L 201.00 313.00 ZM 226.13 309.35 C228.08,306.99 228.77,224.63 226.85,222.32 C225.07,220.18 204.40,220.78 202.94,223.02 C202.36,223.91 202.02,241.24 202.09,266.75 C202.18,304.95 202.35,309.10 203.85,309.97 C204.76,310.50 209.83,310.95 215.13,310.97 C222.89,310.99 225.02,310.68 226.13,309.35 ZM 148.39 98.77 C151.03,85.38 165.34,70.87 178.27,68.47 L 182.05 67.77 L 181.77 84.63 L 181.50 101.50 L 164.62 101.77 L 147.74 102.05 ZM 196.00 115.00 L 229.25 115.00 L 228.61 118.19 C225.94,131.55 212.25,145.41 198.75,148.42 L 196.00 149.04 ZM 154.55 100.08 C155.12,99.52 158.47,99.50 163.00,100.03 C173.95,101.32 175.39,101.21 177.81,98.96 C179.84,97.07 180.00,96.00 180.00,84.02 C180.00,71.31 179.36,68.73 176.71,70.74 C176.04,71.24 173.59,72.19 171.27,72.86 C168.94,73.53 166.56,74.95 165.98,76.04 C165.40,77.12 164.19,78.00 163.29,78.00 C161.06,78.00 158.00,80.92 158.00,83.05 C158.00,84.00 157.30,85.05 156.45,85.38 C155.61,85.71 154.23,87.67 153.41,89.74 C152.59,91.81 151.37,94.59 150.71,95.91 C149.75,97.82 149.76,98.42 150.76,98.75 C151.45,98.98 151.76,99.58 151.45,100.09 C150.71,101.28 153.32,101.27 154.55,100.08 ZM 203.06 144.43 C203.77,143.57 205.19,143.08 206.20,143.34 C207.21,143.61 208.59,143.30 209.27,142.66 C209.95,142.02 212.19,140.24 214.25,138.70 C218.21,135.74 221.41,130.79 220.21,129.47 C219.82,129.04 220.25,128.95 221.16,129.27 C222.44,129.73 223.17,128.78 224.41,124.99 C224.52,124.64 224.63,124.31 224.74,123.99 C225.72,121.02 226.29,119.31 225.68,118.32 C224.85,116.99 221.86,116.99 214.83,117.00 C214.27,117.00 213.68,117.00 213.07,117.00 C202.65,117.00 199.84,117.30 198.57,118.57 C197.30,119.84 197.00,122.65 197.00,133.07 L 197.00 146.00 L 199.38 146.00 C200.69,146.00 202.34,145.29 203.06,144.43 ZM 286.00 159.00 L 315.00 159.00 L 315.00 256.34 L 308.59 262.98 C303.21,268.55 302.07,270.35 301.50,274.18 C300.74,279.21 301.82,281.98 306.85,287.94 L 309.76 291.38 L 306.48 297.94 C304.68,301.55 302.64,306.41 301.94,308.75 L 300.68 313.00 L 286.00 313.00 L 286.14 309.25 C286.22,307.02 286.45,306.40 286.70,307.70 C287.65,312.58 296.36,311.84 300.40,306.54 C301.83,304.67 303.02,302.32 303.04,301.32 C303.05,300.32 303.71,298.38 304.50,297.00 C306.29,293.87 306.41,289.35 304.73,288.30 C301.59,286.33 300.00,281.99 300.00,275.40 L 300.00 268.74 L 306.50 262.61 L 313.00 256.48 L 313.00 209.30 C313.00,173.65 312.71,161.94 311.80,161.38 C310.12,160.34 296.36,159.75 291.26,160.50 L 287.01 161.12 L 286.49 305.50 Z" fill="rgb(63,192,63)"/>
<path d="M 377.71 425.37 C377.32,424.98 377.00,422.93 377.00,420.80 C377.00,412.48 372.91,407.44 363.69,404.42 C360.84,403.49 355.47,401.21 351.77,399.36 C341.86,394.41 336.01,395.14 328.23,402.30 L 325.96 404.39 L 320.49 398.99 L 315.01 393.58 L 317.96 390.54 C320.97,387.42 324.00,381.35 324.00,378.41 C324.00,377.51 322.20,372.76 319.99,367.86 C317.78,362.96 315.44,356.93 314.78,354.47 C314.08,351.84 312.24,348.69 310.34,346.85 C307.63,344.22 306.07,343.61 300.80,343.10 L 294.50 342.50 L 294.50 327.50 L 300.05 326.90 C308.55,325.99 312.34,322.83 314.95,314.50 C315.64,312.30 318.01,306.52 320.22,301.66 C324.65,291.88 324.83,287.76 321.02,283.02 C320.73,282.66 320.45,282.31 320.18,281.99 C317.64,278.85 316.46,277.39 316.58,276.03 C316.69,274.72 318.03,273.50 320.56,270.94 C323.23,268.22 325.93,266.00 326.54,266.00 C327.15,266.00 328.74,267.17 330.08,268.60 C336.17,275.12 341.83,275.37 353.50,269.65 C357.35,267.76 361.87,265.93 363.54,265.58 C371.37,263.92 376.93,256.97 376.98,248.80 C377.00,245.41 377.28,245.04 380.27,244.48 C382.07,244.14 385.56,244.01 388.02,244.18 L 392.50 244.50 L 393.00 250.69 C393.60,258.08 396.66,262.00 403.92,264.62 C406.44,265.53 412.37,268.02 417.09,270.14 C421.82,272.26 426.89,274.00 428.37,274.00 C432.16,274.00 437.08,271.71 439.92,268.63 C441.26,267.18 442.88,266.00 443.54,266.00 C444.63,266.00 454.00,275.30 454.00,276.39 C454.00,276.65 453.43,277.45 452.74,278.18 C444.86,286.47 444.06,291.21 448.90,300.81 C450.50,303.98 452.76,309.45 453.92,312.98 C457.15,322.83 462.07,327.00 470.45,327.00 L 475.00 327.00 L 475.00 343.00 L 470.20 343.00 C463.38,343.00 457.55,346.92 455.36,352.98 C454.46,355.46 452.14,361.10 450.21,365.50 C448.27,369.90 446.50,375.76 446.27,378.52 C445.87,383.25 446.08,383.81 450.08,388.35 L 454.31 393.16 L 448.68 398.80 L 443.04 404.43 L 439.77 401.34 C433.22,395.13 428.03,394.43 419.75,398.63 C416.90,400.07 411.63,402.33 408.04,403.65 C395.57,408.24 393.82,410.08 393.01,419.50 L 392.50 425.50 L 385.46 425.79 C381.58,425.95 378.09,425.76 377.71,425.37 ZM 402.70 389.53 C432.17,380.22 449.15,347.74 440.10,318.00 C432.07,291.64 408.47,275.46 380.84,277.37 C346.14,279.76 321.87,311.13 328.07,345.57 C329.57,353.93 336.03,366.77 342.01,373.32 C357.71,390.50 380.43,396.57 402.70,389.53 ZM 424.47 291.97 C429.63,297.66 437.57,291.10 432.57,285.28 C430.50,282.88 429.86,282.66 427.37,283.54 C423.47,284.91 421.98,289.22 424.47,291.97 Z" fill="rgb(127,128,127)"/>
<path d="M 120.00 46.03 L 122.78 42.92 C124.68,40.80 126.97,39.54 130.03,38.95 C132.49,38.48 188.27,38.07 254.00,38.05 C365.82,38.01 373.73,38.12 377.00,39.75 C378.17,40.34 379.15,40.69 379.96,41.27 C384.02,44.16 384.01,52.74 384.00,124.41 L 384.00 124.41 C384.00,129.05 384.00,133.94 384.00,139.12 L 384.00 229.74 L 380.25 230.36 C378.19,230.70 375.26,230.98 373.75,230.99 L 371.00 231.00 L 371.00 178.65 C371.00,129.21 370.90,126.22 369.17,124.65 C367.57,123.21 364.24,123.00 342.83,123.00 C341.18,123.00 339.63,123.00 338.18,123.00 C323.65,122.97 318.27,122.96 316.22,125.57 C314.80,127.37 314.96,130.41 314.79,135.53 L 314.50 144.50 L 295.54 144.77 C281.89,144.97 276.20,144.85 273.77,147.60 C271.86,149.76 271.95,153.68 271.78,160.90 L 271.50 172.50 L 252.40 173.00 C238.44,173.37 232.86,173.86 231.68,174.85 C230.34,175.96 230.00,178.78 229.78,190.85 L 229.50 205.50 L 210.00 206.05 C199.27,206.36 190.42,206.70 190.32,206.80 C190.22,206.91 189.44,207.71 188.57,208.57 C187.28,209.86 187.00,212.88 187.00,225.57 L 187.00 241.00 L 167.95 241.00 C149.07,241.00 148.89,241.02 146.45,243.45 C144.15,245.76 144.00,246.56 144.00,256.94 L 144.00 267.97 L 140.17 270.39 C135.96,273.05 131.86,277.53 129.21,282.37 C127.75,285.04 127.43,289.58 127.00,313.50 L 126.50 341.50 L 120.00 342.13 ZM 198.57 162.93 C206.60,161.48 219.56,155.10 225.75,149.54 C239.72,136.97 246.64,116.32 243.07,97.82 C239.82,81.00 226.77,64.42 211.91,58.23 C184.57,46.86 155.72,56.12 140.98,81.00 C135.99,89.44 133.99,97.50 134.03,109.14 C134.08,129.76 145.04,147.46 163.85,157.35 C175.20,163.32 186.42,165.12 198.57,162.93 ZM 175.27 378.75 C175.54,377.51 176.55,373.58 177.52,370.00 C178.98,364.56 179.17,360.89 178.67,347.50 C178.35,338.70 177.79,330.49 177.43,329.25 L 176.77 327.00 L 280.00 327.00 L 280.00 335.84 C280.00,343.11 280.40,345.45 282.27,348.99 C285.07,354.27 289.80,357.00 296.15,357.00 L 300.84 357.00 L 302.56 362.25 C303.50,365.14 305.54,370.02 307.08,373.11 C309.18,377.31 309.60,379.00 308.74,379.86 C307.91,380.69 289.65,381.00 241.18,381.00 L 174.77 381.00 ZM 372.55 76.55 C375.36,73.73 375.68,70.42 373.44,67.22 C371.89,65.00 371.84,65.00 339.17,65.00 C302.48,65.00 302.00,65.08 302.00,71.48 C302.00,73.93 302.72,75.42 304.63,76.93 C307.17,78.92 308.42,79.00 338.68,79.00 L 370.09 79.00 ZM 322.37 107.93 C324.28,106.42 325.00,104.93 325.00,102.50 L 325.00 102.40 C325.00,100.79 325.00,99.58 324.48,98.68 C322.92,96.00 316.74,96.00 292.19,96.02 L 291.68 96.02 C275.08,96.02 260.97,96.37 260.31,96.79 C258.10,98.19 257.08,102.52 258.35,105.08 C260.64,109.67 262.69,109.97 292.12,109.99 C318.55,110.00 319.84,109.91 322.37,107.93 ZM 370.39 108.87 C374.05,107.20 375.76,102.45 373.89,99.11 L 372.43 96.50 L 351.96 96.22 C332.09,95.95 331.45,96.00 329.75,98.08 C327.13,101.28 327.59,104.47 331.08,107.41 C334.12,109.97 334.33,110.00 351.03,110.00 C361.44,110.00 368.86,109.57 370.39,108.87 ZM 295.67 76.76 C296.67,75.76 297.40,73.51 297.40,71.40 C297.40,65.48 295.91,65.00 277.38,65.00 L 261.15 65.00 L 259.07 67.63 C256.30,71.16 256.45,72.61 259.99,76.15 L 262.99 79.14 L 278.46 78.82 C291.54,78.55 294.20,78.23 295.67,76.76 ZM 344.59 335.35 C343.81,337.08 342.95,339.17 342.67,340.00 C341.39,343.74 342.13,336.91 343.50,332.30 C348.60,315.12 365.03,300.26 382.43,297.08 C389.87,295.73 398.69,295.68 399.50,297.00 C400.16,298.07 394.87,298.51 386.72,298.07 C383.65,297.90 381.07,298.38 379.50,299.41 C378.17,300.28 376.36,301.00 375.50,301.00 C374.64,301.00 372.81,301.74 371.43,302.64 C370.06,303.53 368.64,303.97 368.28,303.61 C367.91,303.25 365.45,305.08 362.81,307.69 C360.16,310.29 358.00,312.03 358.00,311.56 C358.00,311.08 357.10,311.50 356.00,312.50 C353.54,314.73 353.33,316.75 355.75,314.92 C356.71,314.20 355.44,315.83 352.93,318.55 C348.41,323.46 346.00,327.65 346.00,330.65 C346.00,331.50 345.37,333.62 344.59,335.35 ZM 416.27 304.42 C415.56,304.02 414.26,303.72 412.88,303.68 C410.72,303.62 409.33,303.09 409.33,302.31 C409.33,301.29 409.65,301.28 410.92,302.27 C412.27,303.32 412.32,303.27 411.31,301.97 C410.65,301.12 408.70,300.33 406.96,300.19 C405.23,300.06 403.15,299.29 402.33,298.48 C401.03,297.17 401.19,296.99 403.68,296.92 C405.20,296.87 405.66,296.73 404.68,296.09 C409.44,298.56 414.23,301.77 415.38,303.28 C415.64,303.62 415.94,304.00 416.27,304.42 ZM 341.41 339.44 C342.15,344.28 343.74,349.22 345.08,350.05 C345.72,350.45 346.38,351.92 346.53,353.32 C346.71,354.99 347.98,357.50 349.80,360.13 C349.49,359.70 349.18,359.27 348.89,358.83 C344.71,352.68 342.26,346.06 341.41,339.44 ZM 400.82 294.11 C396.09,291.85 394.15,291.55 384.92,291.53 C379.69,291.51 377.02,291.52 374.60,292.06 C377.04,291.51 379.74,291.50 385.05,291.50 L 395.75 291.50 ZM 361.86 371.49 C366.78,374.49 372.60,376.97 376.50,377.57 C371.74,376.84 366.62,374.64 361.86,371.49 ZM 424.78 316.95 C423.24,313.69 421.32,310.48 419.74,308.81 C418.56,307.55 417.42,306.10 416.98,305.30 C417.97,306.53 419.07,307.84 419.89,308.78 C421.41,310.51 423.27,313.72 424.78,316.95 Z" fill="rgb(185,228,241)"/>
<path d="M 341.41 339.44 C339.18,321.98 348.07,304.52 365.75,295.76 C369.99,293.66 372.17,292.60 374.60,292.06 C377.02,291.52 379.69,291.51 384.92,291.53 C394.15,291.55 396.09,291.85 400.82,294.11 L 404.50 296.00 C405.66,296.73 405.20,296.87 403.68,296.92 C401.19,296.99 401.03,297.17 402.33,298.48 C403.15,299.29 405.23,300.06 406.96,300.19 C405.23,300.06 403.22,299.36 402.50,298.64 C401.83,297.97 400.67,297.69 398.66,297.76 C399.38,297.57 399.69,297.31 399.50,297.00 C398.69,295.68 389.87,295.73 382.43,297.08 C365.03,300.26 348.60,315.12 343.50,332.30 C342.13,336.91 341.39,343.74 342.67,340.00 C342.79,339.65 343.01,339.08 343.28,338.41 C342.62,340.63 342.39,342.89 342.59,344.85 C342.11,343.19 341.70,341.30 341.41,339.44 ZM 424.47 291.97 C421.98,289.22 423.47,284.91 427.37,283.54 C429.86,282.66 430.50,282.88 432.57,285.28 C437.57,291.10 429.63,297.66 424.47,291.97 ZM 393.71 298.23 C391.09,298.42 388.10,298.43 386.29,298.22 C385.37,298.12 384.54,298.09 383.77,298.12 C384.68,298.03 385.67,298.01 386.72,298.07 C389.40,298.21 391.76,298.26 393.71,298.23 ZM 346.00 330.65 C346.00,329.36 346.44,327.85 347.31,326.16 C346.61,327.89 346.06,329.67 346.00,330.71 C346.00,330.69 346.00,330.67 346.00,330.65 ZM 355.75 314.92 C354.85,315.60 354.31,315.75 354.12,315.55 C354.31,315.75 354.85,315.60 355.75,314.91 C356.71,314.18 356.19,315.01 354.60,316.75 C354.42,316.95 354.24,317.14 354.06,317.32 C355.80,315.36 356.56,314.32 355.75,314.92 ZM 345.15 333.98 C345.62,332.70 345.96,331.45 346.00,330.77 C345.99,330.81 345.99,330.84 345.99,330.87 C345.99,331.54 345.64,332.78 345.15,333.98 ZM 344.94 349.95 C345.02,350.01 345.10,350.06 345.19,350.12 C345.77,350.48 346.38,351.92 346.53,353.32 C346.38,351.92 345.72,350.45 345.08,350.05 C345.03,350.02 344.98,349.98 344.94,349.95 Z" fill="rgb(161,173,178)"/>
<path d="M 56.56 428.76 C56.34,428.07 55.90,400.72 55.58,367.98 C55.46,356.01 55.37,346.34 55.33,338.49 C55.37,340.22 55.40,342.05 55.44,343.99 C55.90,366.21 56.52,378.71 57.20,379.12 C59.05,380.27 76.27,384.11 83.50,385.00 C96.77,386.62 112.05,384.55 123.13,379.63 C128.65,377.18 139.26,369.34 141.77,365.86 C142.47,364.89 143.60,363.51 144.27,362.80 C149.05,357.75 156.57,342.81 159.54,332.50 C160.49,329.20 161.60,326.27 162.00,326.00 C162.36,325.76 161.84,318.68 160.83,309.62 C161.05,311.48 161.29,313.45 161.54,315.55 C163.43,331.47 164.99,348.04 164.99,352.36 C165.01,367.56 160.42,378.59 146.82,396.04 C136.51,409.28 133.36,414.42 130.43,422.79 L 128.09 429.50 L 92.52 429.76 C64.56,429.97 56.86,429.76 56.56,428.76 ZM 216.44 101.02 C221.53,100.66 225.84,100.19 226.76,99.75 C228.04,99.13 228.65,98.53 228.48,97.13 C228.52,97.34 228.57,97.54 228.61,97.75 L 229.25 101.00 L 219.27 101.00 C218.36,101.00 217.41,101.01 216.44,101.02 ZM 228.00 95.33 C227.48,93.87 226.55,91.88 225.17,89.06 C224.65,88.01 224.06,86.97 223.41,85.94 C225.45,88.96 227.04,92.15 228.00,95.33 ZM 196.75 101.44 C196.73,101.42 196.71,101.38 196.69,101.34 C197.24,101.60 199.81,101.68 203.23,101.62 C200.05,101.94 197.16,101.86 196.75,101.44 ZM 56.47 302.78 C56.48,302.73 56.49,302.68 56.51,302.63 C57.65,298.25 60.63,291.46 64.55,284.03 C60.68,291.38 57.74,298.13 56.47,302.78 ZM 156.02 283.77 C154.94,282.01 153.60,281.42 151.70,281.19 C153.61,281.42 154.94,281.89 156.02,283.77 Z" fill="rgb(225,171,127)"/>
<path d="M 0.00 0.00 L 512.00 0.00 L 512.00 512.00 L 0.00 512.00 ZM 137.50 486.19 C148.17,481.31 154.03,472.85 154.79,461.24 C155.22,454.60 154.99,453.43 152.09,447.53 C150.34,443.98 147.30,439.74 145.33,438.12 C142.02,435.39 141.80,434.88 142.45,431.39 C143.43,426.20 147.93,417.65 153.47,410.50 C156.03,407.20 159.71,402.36 161.65,399.75 L 165.19 395.00 L 301.75 395.00 L 302.37 398.11 C303.24,402.47 317.88,416.62 322.92,417.98 C327.97,419.34 332.53,417.86 337.10,413.40 L 340.82 409.77 L 346.16 412.37 C349.10,413.81 353.98,415.85 357.00,416.91 L 362.50 418.84 L 363.10 424.97 C363.61,430.15 364.22,431.64 367.07,434.58 C371.54,439.18 375.71,440.28 387.24,439.85 C395.03,439.57 397.38,439.11 399.62,437.44 C404.17,434.04 405.97,430.81 406.76,424.67 L 407.50 418.84 L 413.00 416.92 C416.02,415.86 420.67,413.88 423.33,412.51 C428.61,409.78 429.79,409.99 433.93,414.41 C437.00,417.69 441.83,419.05 446.61,417.98 C449.27,417.38 452.40,415.08 457.73,409.82 C466.91,400.76 468.37,398.16 467.76,391.87 C467.41,388.24 466.41,385.99 463.67,382.64 L 460.03 378.21 L 463.54 370.62 C465.47,366.45 467.30,361.73 467.62,360.13 C468.17,357.38 468.52,357.20 474.12,356.80 C480.80,356.31 484.37,354.20 487.50,348.90 C489.18,346.05 489.50,343.70 489.50,334.32 C489.50,324.59 489.23,322.79 487.44,320.38 C483.96,315.72 480.49,313.79 474.45,313.13 C468.82,312.51 468.67,312.41 467.32,308.52 C466.57,306.33 464.54,301.48 462.81,297.74 L 459.67 290.93 L 462.72 287.72 C466.76,283.44 468.00,280.84 468.00,276.63 C468.00,271.46 466.57,268.52 461.26,262.82 C453.41,254.37 449.51,252.00 443.50,252.00 C439.34,252.00 437.49,252.58 434.25,254.93 C432.02,256.55 429.92,258.33 429.57,258.89 C429.17,259.53 427.21,259.14 424.22,257.81 C421.62,256.65 416.80,254.70 413.50,253.47 L 407.50 251.23 L 406.91 245.84 C406.20,239.44 405.06,237.07 401.05,233.69 L 398.05 231.17 L 397.77 137.34 L 397.50 43.50 L 394.80 38.38 C391.81,32.71 387.57,28.68 382.26,26.46 C377.17,24.34 126.73,24.25 121.65,26.37 C116.46,28.54 110.89,34.04 108.35,39.49 L 106.02 44.50 L 106.01 126.03 L 106.00 207.56 L 99.92 213.53 C80.21,232.86 55.92,266.86 47.47,286.96 C46.04,290.34 44.93,292.89 44.08,295.53 C41.07,304.76 41.17,315.00 41.66,365.81 C41.68,367.48 41.69,369.19 41.71,370.95 L 42.32 434.76 L 40.21 435.43 C36.52,436.60 28.42,446.43 27.02,451.43 C25.42,457.14 26.13,467.42 28.42,471.85 C31.00,476.84 36.91,482.91 41.43,485.23 C47.74,488.45 53.74,488.84 94.50,488.65 C131.76,488.47 132.60,488.43 137.50,486.19 ZM 381.00 378.70 C380.73,378.42 378.70,377.91 376.50,377.57 C371.74,376.84 366.62,374.64 361.86,371.49 C357.27,368.44 353.03,364.50 349.80,360.13 C347.98,357.50 346.71,354.99 346.53,353.32 C346.38,351.92 345.77,350.48 345.19,350.12 C345.10,350.06 345.02,350.01 344.94,349.95 C344.16,349.31 343.30,347.33 342.59,344.85 C342.39,342.89 342.62,340.63 343.28,338.41 C343.66,337.48 344.14,336.35 344.59,335.35 C344.79,334.91 344.98,334.44 345.15,333.98 C345.64,332.78 345.99,331.54 345.99,330.87 C345.99,330.84 345.99,330.81 346.00,330.77 C346.00,330.75 346.00,330.73 346.00,330.71 L 346.00 330.71 C346.06,329.67 346.61,327.89 347.31,326.16 C348.46,323.92 350.35,321.35 352.93,318.55 C353.34,318.11 353.72,317.70 354.06,317.32 C354.24,317.14 354.42,316.95 354.60,316.75 C356.19,315.01 356.71,314.18 355.75,314.91 C354.85,315.60 354.31,315.75 354.12,315.55 L 354.12 315.55 C354.04,315.47 354.02,315.33 354.06,315.16 C354.07,315.11 354.08,315.06 354.10,315.00 C354.28,314.41 354.92,313.47 356.00,312.50 C357.10,311.50 358.00,311.08 358.00,311.56 C358.00,312.03 360.16,310.29 362.81,307.69 C365.45,305.08 367.91,303.25 368.28,303.61 C368.64,303.97 370.06,303.53 371.43,302.64 C372.81,301.74 374.64,301.00 375.50,301.00 C376.36,301.00 378.17,300.28 379.50,299.41 C380.53,298.73 382.01,298.29 383.77,298.12 C384.54,298.09 385.37,298.12 386.29,298.22 C388.10,298.43 391.09,298.42 393.71,298.23 C395.99,298.19 397.69,298.03 398.66,297.76 C400.67,297.69 401.83,297.97 402.50,298.64 C403.22,299.36 405.23,300.06 406.96,300.19 C408.70,300.33 410.65,301.12 411.31,301.97 C412.32,303.27 412.27,303.32 410.92,302.27 C409.65,301.28 409.33,301.29 409.33,302.31 C409.33,303.09 410.72,303.62 412.88,303.68 C414.26,303.72 415.56,304.02 416.27,304.42 C416.50,304.70 416.74,305.00 416.98,305.30 C417.42,306.10 418.56,307.55 419.74,308.81 C421.32,310.48 423.24,313.68 424.77,316.95 L 424.78 316.95 C426.11,319.82 427.16,322.70 427.45,324.59 C427.70,326.19 428.19,329.30 428.55,331.50 C430.50,343.58 420.46,364.84 410.37,370.00 C408.79,370.81 406.34,372.29 404.92,373.30 C403.50,374.30 401.70,375.25 400.92,375.41 C400.14,375.57 398.27,376.20 396.76,376.82 C393.71,378.07 381.78,379.49 381.00,378.70 Z" fill="rgb(253,253,253)"/>
<path d="M 56.47 302.78 C57.74,298.13 60.68,291.38 64.55,284.03 C67.74,277.95 71.57,271.46 75.52,265.50 C85.53,250.40 102.01,230.00 104.20,230.00 C104.64,230.00 105.00,257.38 105.00,290.85 C105.00,351.43 105.01,351.70 107.10,353.60 C108.96,355.28 110.84,355.50 123.07,355.50 C135.03,355.50 137.17,355.26 138.71,353.72 C140.33,352.10 140.55,348.92 141.00,319.89 L 141.50 287.84 L 145.30 284.36 C148.00,281.89 149.86,280.97 151.70,281.19 C153.60,281.42 154.94,282.01 156.02,283.77 C157.79,286.86 158.89,293.76 160.83,309.62 C161.84,318.68 162.36,325.76 162.00,326.00 C161.60,326.27 160.49,329.20 159.54,332.50 C156.57,342.81 149.05,357.75 144.27,362.80 C143.60,363.51 142.47,364.89 141.77,365.86 C139.26,369.34 128.65,377.18 123.13,379.63 C112.05,384.55 96.77,386.62 83.50,385.00 C76.27,384.11 59.05,380.27 57.20,379.12 C56.52,378.71 55.90,366.21 55.44,343.99 C55.40,342.05 55.37,340.22 55.33,338.49 C55.19,312.99 55.49,306.65 56.47,302.78 Z" fill="rgb(250,208,161)"/>
<path d="M 175.57 312.11 C175.23,311.57 174.30,305.58 173.49,298.81 C172.69,292.04 171.57,284.87 171.01,282.89 C169.62,278.00 164.71,271.42 161.02,269.51 C158.17,268.04 158.00,267.61 158.00,261.99 C158.00,254.71 157.78,254.81 174.50,255.21 L 186.50 255.50 L 186.50 284.00 L 186.50 312.50 L 181.34 312.80 C178.50,312.96 175.90,312.65 175.57,312.11 ZM 243.45 311.72 C243.18,311.02 243.08,282.78 243.23,248.97 L 243.50 187.50 L 257.75 187.22 L 272.00 186.95 L 272.00 249.97 L 272.00 313.00 L 257.97 313.00 C247.51,313.00 243.81,312.67 243.45,311.72 ZM 336.42 255.93 C333.92,253.77 331.23,252.00 330.44,252.00 C329.20,252.00 329.00,243.86 329.00,194.50 L 329.00 137.00 L 343.00 137.00 L 357.00 137.00 L 357.00 194.83 L 357.00 252.66 L 348.99 256.26 L 340.97 259.87 L 336.42 255.93 ZM 173.89 146.64 C166.91,143.77 163.54,141.40 158.12,135.51 C153.58,130.58 149.03,121.96 149.01,118.25 C149.00,116.01 149.05,116.00 165.52,116.00 L 182.05 116.00 L 181.77 132.17 C181.61,141.83 181.10,148.46 180.50,148.64 C179.95,148.81 176.98,147.91 173.89,146.64 ZM 196.62 101.28 C196.28,100.94 196.00,93.26 196.00,84.21 L 196.00 67.75 L 199.25 68.39 C209.14,70.34 220.39,79.31 225.17,89.06 C229.21,97.29 229.38,98.48 226.76,99.75 C224.31,100.94 197.63,102.30 196.62,101.28 Z" fill="rgb(251,182,8)"/>
</g>
</svg>