<?xml version="1.0" encoding="UTF-8"?>
<svg version="1.1" xmlns="http://www.w3.org/2000/svg" width="500" height="500">
<path d="M0 0 C1.0092716 -0.00694553 2.0185432 -0.01389106 3.05839878 -0.02104706 C6.42075802 -0.03925871 9.78240703 -0.02906867 13.14479065 -0.01878357 C15.56336493 -0.02584495 17.98193478 -0.03459088 20.40049744 -0.04489136 C26.27616646 -0.06503794 32.15165677 -0.06641908 38.02733808 -0.05826581 C42.80537473 -0.05195242 47.58335499 -0.05311508 52.36139107 -0.05953789 C53.38350245 -0.06089037 53.38350245 -0.06089037 54.42626255 -0.06227018 C55.81077044 -0.06412148 57.19527832 -0.06598404 58.57978619 -0.06785773 C71.54736514 -0.08441652 84.51483513 -0.07573344 97.48240752 -0.05887216 C109.33155138 -0.04417733 121.18044161 -0.0588038 133.02955281 -0.08764232 C145.21370737 -0.1170741 157.39774502 -0.12799758 169.58193356 -0.11846012 C170.96150368 -0.11743763 172.34107383 -0.11644302 173.720644 -0.11547661 C174.39931722 -0.11500022 175.07799045 -0.11452383 175.77722953 -0.114033 C180.5456381 -0.11187383 185.31393536 -0.12164637 190.08231926 -0.13624763 C196.50844734 -0.1556516 202.93421962 -0.1486273 209.36033249 -0.12404823 C211.71530867 -0.11904517 214.07032082 -0.12251687 216.42526817 -0.13519669 C219.64700614 -0.15116802 222.86720122 -0.13613623 226.08886719 -0.11352539 C227.01466392 -0.12536112 227.94046066 -0.13719685 228.89431185 -0.14939123 C236.36720663 -0.04327219 242.79799353 2.19114797 248.4931466 7.15919763 C257.46896907 16.4554699 257.16947314 28.18953651 257.06202698 40.26515198 C257.06089713 42.04985529 257.06153504 43.83456046 257.063797 45.6192627 C257.06493972 50.4389298 257.0415023 55.25819475 257.01350117 60.0777688 C256.98841351 65.12392264 256.98613972 70.17008676 256.98139954 75.21629333 C256.96899135 84.76065193 256.93619901 94.3048262 256.89600158 103.84910381 C256.85121661 114.71971951 256.82927993 125.59034423 256.80921984 136.46102929 C256.76746443 158.81234276 256.69715444 181.16349288 256.60792542 203.5146637 C257.22280823 203.79439026 257.83769104 204.07411682 258.47120667 204.36231995 C262.28292504 206.41799987 264.26194407 209.47671966 265.60792542 213.5146637 C265.67533406 215.07584797 265.69306998 216.6396889 265.67042542 218.2021637 C265.66140198 219.01040588 265.65237854 219.81864807 265.64308167 220.65138245 C265.62567932 221.57370667 265.62567932 221.57370667 265.60792542 222.5146637 C266.32077698 222.69642151 267.03362854 222.87817932 267.76808167 223.06544495 C276.54347362 225.36854243 276.54347362 225.36854243 280.54542542 227.2646637 C283.37528797 228.66132371 283.37528797 228.66132371 285.67042542 228.4521637 C288.50230844 227.08189771 291.01080267 225.28291748 293.60792542 223.5146637 C298.62859529 221.84110707 302.3613308 222.07835558 307.35792542 223.8271637 C315.01109184 228.0057027 322.30026251 235.48331228 325.60792542 243.5146637 C326.38415935 248.13033429 325.70259759 252.32531935 323.60792542 256.5146637 C322.94792542 256.5146637 322.28792542 256.5146637 321.60792542 256.5146637 C320.40164534 258.84680518 319.44245162 261.01108508 318.60792542 263.5146637 C319.67316731 266.25468644 320.79275822 268.86306686 322.04542542 271.5146637 C322.7157733 272.94984661 323.38134723 274.38727158 324.04151917 275.8271637 C324.34114563 276.46267151 324.64077209 277.09817932 324.94947815 277.75294495 C325.60792542 279.5146637 325.60792542 279.5146637 325.60792542 282.5146637 C326.30917542 282.43345276 327.01042542 282.35224182 327.73292542 282.26856995 C333.09068266 281.91187143 336.84353399 281.9871174 341.17042542 285.3896637 C345.33647673 289.64091034 346.2353083 293.70183676 346.60792542 299.5146637 C346.67624573 300.50208557 346.74456604 301.48950745 346.81495667 302.5068512 C347.05082173 309.3731454 346.93418975 316.72490351 342.17823792 322.14356995 C338.23233647 325.58887196 335.04058665 326.65136893 329.92042542 326.5771637 C329.11218323 326.56814026 328.30394104 326.55911682 327.47120667 326.54981995 C326.54888245 326.5324176 326.54888245 326.5324176 325.60792542 326.5146637 C325.26761292 328.4018512 325.26761292 328.4018512 324.92042542 330.3271637 C323.85474749 335.31611518 321.79912342 339.53526749 319.43605042 344.03419495 C318.34795559 346.46228171 318.34795559 346.46228171 319.33839417 348.67481995 C320.97933282 351.05291873 322.78204871 353.27649226 324.60792542 355.5146637 C326.1949863 358.68878546 325.89269668 362.05105036 325.60792542 365.5146637 C324.60792542 368.5146637 324.60792542 368.5146637 323.60792542 370.5146637 C322.94792542 370.5146637 322.28792542 370.5146637 321.60792542 370.5146637 C321.25601135 371.3480426 321.25601135 371.3480426 320.89698792 372.19825745 C317.63361727 378.06243561 311.72238986 384.01796522 305.54542542 386.7646637 C300.97926196 388.04171947 296.92901085 387.33446224 292.60792542 385.5146637 C289.75352634 383.714635 287.15672779 381.72316275 284.60792542 379.5146637 C283.81128479 379.92458557 283.01464417 380.33450745 282.19386292 380.7568512 C281.13425354 381.29567932 280.07464417 381.83450745 278.98292542 382.3896637 C277.93878479 382.92333557 276.89464417 383.45700745 275.81886292 384.0068512 C272.78990917 385.4292066 269.80149207 386.5268638 266.60792542 387.5146637 C266.53315979 388.22751526 266.45839417 388.94036682 266.38136292 389.67481995 C265.46496477 396.35015155 264.09153462 401.26888952 258.60792542 405.5146637 C253.78370341 408.2582098 248.56129306 407.84579144 243.17042542 407.8271637 C242.24165588 407.84327698 241.31288635 407.85939026 240.35597229 407.87599182 C233.43271886 407.8809194 229.11051489 406.78974503 223.85792542 402.0146637 C221.44969162 399.0597756 221.42605163 396.75521362 221.23292542 393.0146637 C220.99731194 390.09900806 220.99731194 390.09900806 219.60792542 387.5146637 C214.83986135 384.6447324 209.91212294 383.12216601 204.60792542 381.5146637 C202.93365246 380.86733667 201.26309392 380.20938626 199.60792542 379.5146637 C198.86349182 380.2552301 198.86349182 380.2552301 198.10401917 381.01075745 C194.85356718 384.07617421 192.40838419 386.25737338 188.10792542 387.6396637 C179.71263976 387.33983207 174.81009189 383.50411792 169.23292542 377.7021637 C168.6180426 377.09823792 168.00315979 376.49431213 167.36964417 375.87208557 C163.48650055 371.92521422 162.49969574 370.18997467 160.60792542 364.5146637 C117.04792542 364.1846637 73.48792542 363.8546637 28.60792542 363.5146637 C27.94792542 365.1646637 27.28792542 366.8146637 26.60792542 368.5146637 C24.91966454 370.75727889 23.20941492 372.91944658 21.42042542 375.0771637 C10.95032772 387.41836835 10.95032772 387.41836835 7.60792542 402.5146637 C9.96146947 404.66161584 9.96146947 404.66161584 11.83839417 405.94044495 C16.71508953 410.27887372 19.17659137 416.74005394 20.15870667 423.05763245 C20.53627368 432.94988816 17.98704148 440.08063829 11.35792542 447.3896637 C1.73454427 455.82939141 -8.57539644 455.12210437 -20.73191833 455.08106995 C-22.62324325 455.08631242 -24.51456555 455.09259118 -26.40588379 455.09985352 C-30.35900729 455.11022947 -34.31177018 455.10573682 -38.26487732 455.09107971 C-43.30968962 455.07389801 -48.35336223 455.09739438 -53.39804745 455.13256931 C-57.30080593 455.1546185 -61.20329487 455.15308366 -65.10609627 455.144804 C-66.9650809 455.14398856 -68.82408613 455.15077335 -70.68301201 455.16557503 C-90.97613545 455.3024092 -90.97613545 455.3024092 -99.47787476 447.63308716 C-105.41077113 441.64473606 -108.52478183 434.41500452 -108.89207458 426.0146637 C-108.47521908 416.77870883 -105.05113847 410.47415311 -98.48973083 404.1084137 C-96.21703596 402.38167345 -94.04765662 401.52402024 -91.39207458 400.5146637 C-91.42105835 399.70544968 -91.45004211 398.89623566 -91.47990417 398.0625 C-92.33908081 373.3083589 -92.60997823 348.56780175 -92.63230896 323.79957581 C-92.63788581 318.55424071 -92.66220029 313.30915322 -92.69028091 308.06389713 C-92.70894661 303.95701368 -92.714114 299.85019124 -92.71564484 295.74326897 C-92.71863984 293.80778518 -92.72655929 291.87230164 -92.73983002 289.93686104 C-92.82658663 276.36991838 -91.83993467 264.51486382 -85.76707458 252.1396637 C-85.41934998 251.41980286 -85.07162537 250.69994202 -84.71336365 249.95826721 C-76.33493785 233.02016957 -64.29722571 218.08407243 -52.39207458 203.5146637 C-51.62894958 202.57751526 -50.86582458 201.64036682 -50.07957458 200.67481995 C-48.52989673 198.77595481 -46.97666958 196.87997915 -45.41941833 194.98731995 C-44.25463665 193.56669027 -43.09662296 192.14031763 -41.95848083 190.69825745 C-38.84269139 186.78564316 -38.84269139 186.78564316 -36.65782452 185.47176838 C-34.35784174 184.01578597 -32.96935853 182.7503502 -31.39207458 180.5146637 C-30.33808951 175.48712439 -30.48920292 170.4887576 -30.56907654 165.38063049 C-30.56773606 163.82785996 -30.56326037 162.27508945 -30.55589294 160.72233582 C-30.54665797 157.38423645 -30.55931969 154.04719687 -30.58902931 150.70921898 C-30.63570089 145.42589082 -30.63220016 140.14331326 -30.62185669 134.85983276 C-30.61004201 125.54665816 -30.64092395 116.23398901 -30.68101501 106.9209137 C-30.74083377 92.91188357 -30.76523978 78.90282704 -30.75276917 64.89367801 C-30.74966834 59.64736947 -30.76802973 54.40170989 -30.80376208 49.15552747 C-30.8223793 45.88389193 -30.8246327 42.6123838 -30.82285309 39.34070206 C-30.82549916 37.83025696 -30.83499366 36.31980492 -30.85206413 34.80945396 C-30.96284514 24.62187328 -30.11634564 16.17203304 -23.20457458 8.2021637 C-22.6953949 7.58728088 -22.18621521 6.97239807 -21.66160583 6.33888245 C-15.07264495 1.04276414 -8.2383359 -0.07315539 0 0 Z M259.60792542 286.5146637 C256.83603384 289.73363456 256.60792542 291.208221 256.60792542 295.5146637 C257.38091821 299.81901306 258.97574361 301.96440838 262.60792542 304.5146637 C266.46640351 305.76964344 269.61064951 305.93573574 273.42042542 304.3271637 C276.39111758 301.86573304 278.11322817 299.82207785 279.48292542 296.2021637 C279.66285043 292.33377593 278.42301071 289.89447769 276.60792542 286.5146637 C274.24829228 283.98648534 272.59800575 283.51190823 269.23292542 282.5771637 C264.66816042 282.49846085 263.03002376 283.55921512 259.60792542 286.5146637 Z " fill="#080808" transform="translate(132.39207458496094,22.485336303710938)"/>
<path d="M0 0 C0.83966224 -0.00644889 1.67932448 -0.01289778 2.54443103 -0.0195421 C3.46183242 -0.01644489 4.3792338 -0.01334769 5.32443523 -0.01015663 C6.30296654 -0.01468774 7.28149784 -0.01921886 8.28968161 -0.02388728 C11.57765554 -0.03657548 14.86546476 -0.03490804 18.1534605 -0.03325844 C20.50719701 -0.03924094 22.86093156 -0.04604584 25.21466351 -0.05361366 C31.61552942 -0.0713096 38.01634188 -0.07597057 44.41722989 -0.07724524 C49.08498828 -0.07839856 53.75273761 -0.08470005 58.42049169 -0.09091819 C70.97218626 -0.10753068 83.52385246 -0.11500243 96.07555763 -0.11357872 C97.14472502 -0.11345885 97.14472502 -0.11345885 98.23549175 -0.11333656 C99.3059658 -0.11321392 99.3059658 -0.11321392 100.39806559 -0.1130888 C111.96175416 -0.11227604 123.52531242 -0.13141094 135.08896331 -0.1596133 C146.96443335 -0.1883474 158.83983987 -0.20215328 170.71534556 -0.20042574 C177.38171986 -0.19976199 184.04797691 -0.20563697 190.71432209 -0.22678185 C196.98439631 -0.2461261 203.25418193 -0.24631455 209.52426624 -0.23174858 C211.82567802 -0.22965463 214.12710767 -0.23439609 216.42848873 -0.2464695 C219.57033289 -0.26188456 222.71117736 -0.2526378 225.85299969 -0.23720741 C227.21906352 -0.2526381 227.21906352 -0.2526381 228.6127246 -0.26838052 C234.49570142 -0.20453374 237.96938315 0.80497302 242.77919292 4.25726891 C245.16562914 7.83692322 245.05429221 10.3597926 245.01970196 14.48949242 C245.02226523 15.60202179 245.02226523 15.60202179 245.02488029 16.73702651 C245.02818179 19.22914159 245.01716075 21.72098906 245.00624371 24.21307945 C245.00567973 25.99675045 245.00599588 27.78042191 245.00712872 29.56409264 C245.00770378 34.41297437 244.99592467 39.26175764 244.9819808 44.11061645 C244.96949898 49.1755122 244.96830496 54.24041007 244.96592999 59.30531883 C244.95970771 68.89942629 244.94328679 78.49348831 244.92323101 88.08757573 C244.90089524 99.00883381 244.88988442 109.93009404 244.87984014 120.85136926 C244.85892121 143.3200277 244.82373073 165.78864576 244.77919292 188.25726891 C240.81919292 188.58726891 236.85919292 188.91726891 232.77919292 189.25726891 C232.77372448 187.33167389 232.77372448 187.33167389 232.76814556 185.36717796 C232.73124991 173.28600437 232.67353688 161.20508696 232.59529018 149.12410831 C232.55573304 142.91270622 232.52358498 136.70144765 232.50819683 130.48993492 C232.49308454 124.49864923 232.45873568 118.5077579 232.4108839 112.51664734 C232.39601398 110.22767941 232.38814872 107.9386552 232.38730907 105.64963913 C232.38495456 102.45030297 232.35799675 99.25207022 232.32509136 96.0529232 C232.33012173 95.10058296 232.33515209 94.14824272 232.34033489 93.16704369 C232.38242636 88.25969329 232.38242636 88.25969329 230.02766705 84.16930199 C227.59458023 83.18238573 225.87935048 82.87712321 223.25770855 82.86908531 C221.92612713 82.85490059 221.92612713 82.85490059 220.56764507 82.84042931 C219.61651836 82.846502 218.66539165 82.85257469 217.68544292 82.85883141 C216.70176739 82.85596123 215.71809185 82.85309105 214.70460796 82.8501339 C212.62676193 82.84809421 210.54889666 82.8536174 208.47108746 82.86615562 C205.29080039 82.88221031 202.11178422 82.86630338 198.93153667 82.84711266 C196.91200262 82.8490951 194.89246936 82.85293881 192.87294292 82.85883141 C191.44625286 82.84972237 191.44625286 82.84972237 189.99074078 82.84042931 C189.10301983 82.84988579 188.21529888 82.85934227 187.3006773 82.86908531 C186.5222044 82.87147209 185.7437315 82.87385887 184.94166851 82.87631798 C182.25126686 83.18226879 182.25126686 83.18226879 178.77919292 86.25726891 C178.44919292 92.19726891 178.11919292 98.13726891 177.77919292 104.25726891 C165.23919292 104.58726891 152.69919292 104.91726891 139.77919292 105.25726891 C137.87473182 109.06619112 137.50096031 110.60424739 137.36513042 114.67914391 C137.30712261 116.21635094 137.30712261 116.21635094 137.24794292 117.78461266 C137.21700542 118.84808922 137.18606792 119.91156578 137.15419292 121.00726891 C137.09618511 122.62568687 137.09618511 122.62568687 137.03700542 124.27680016 C136.94284661 126.93678665 136.85721905 129.59676831 136.77919292 132.25726891 C135.60824078 132.27708824 134.43728863 132.29690758 133.23085308 132.3173275 C128.89583218 132.39326972 124.56115197 132.4820041 120.22645855 132.57465172 C118.34859717 132.61298868 116.47066116 132.64783317 114.59266949 132.67914391 C111.89675971 132.72469254 109.20136581 132.78270266 106.50575542 132.84320641 C105.24162319 132.86053322 105.24162319 132.86053322 103.95195293 132.87821007 C99.38898335 132.79920071 99.38898335 132.79920071 95.77919292 135.25726891 C95.40622737 138.26699548 95.40622737 138.26699548 95.36513042 141.79633141 C95.32645855 143.09828453 95.28778667 144.40023766 95.24794292 145.74164391 C95.21648529 147.12184752 95.18523801 148.50205595 95.15419292 149.88226891 C95.11601359 151.27031431 95.07696188 152.65833602 95.03700542 154.04633141 C94.9424635 157.44984075 94.85691395 160.85334056 94.77919292 164.25726891 C93.64377056 164.26661461 92.5083482 164.27596031 91.3385191 164.28558922 C87.1281582 164.32544461 82.91853147 164.3911902 78.70863628 164.46478844 C76.88614104 164.49302405 75.06352274 164.5142257 73.24086285 164.528265 C70.62148709 164.5496593 68.00359478 164.59628869 65.38466167 164.64789391 C64.56894192 164.64912254 63.75322216 164.65035118 62.91278362 164.65161705 C58.50691145 164.75399901 58.50691145 164.75399901 54.77333355 166.87445641 C53.46644559 170.00687941 53.34191086 172.59733105 53.26747417 175.99164391 C53.21430035 177.93490562 53.21430035 177.93490562 53.1600523 179.91742516 C53.13695426 181.28070116 53.11417179 182.64398255 53.09169292 184.00726891 C53.05850645 185.38620752 53.02401554 186.76511541 52.9881773 188.14398766 C52.90567002 191.51499949 52.83652521 194.88575019 52.77919292 198.25726891 C51.7043565 198.28232506 50.62952007 198.30738121 49.52211285 198.33319664 C45.53566271 198.42734386 41.54938384 198.52754675 37.56312847 198.62958336 C35.83758328 198.67290452 34.111996 198.71458164 32.38637066 198.75458336 C29.90650528 198.81235417 27.4268512 198.87602893 24.94716167 198.94086266 C23.78920338 198.9659314 23.78920338 198.9659314 22.60785198 198.99150658 C19.42736359 199.07954785 16.81683709 199.24472085 13.77919292 200.25726891 C12.78463384 203.24094617 12.5835966 205.45768811 12.46278667 208.58148766 C12.42089214 209.609515 12.37899761 210.63754234 12.33583355 211.69672203 C12.29651714 212.7685775 12.25720074 213.84043297 12.21669292 214.94476891 C12.17350933 216.02822594 12.13032574 217.11168297 12.08583355 218.22797203 C11.97972455 220.90427682 11.87766932 223.58067417 11.77919292 226.25726891 C10.69122417 226.68394859 9.60325542 227.11062828 8.48231792 227.55023766 C5.52218185 228.82238073 3.57202993 230.01622265 1.52919292 232.56976891 C0.84083355 233.39928062 0.84083355 233.39928062 0.13856792 234.24555016 C-4.47573167 241.07418317 -4.68773702 246.59351018 -4.73252583 254.65570641 C-4.75945263 256.44085152 -4.75945263 256.44085152 -4.78692341 258.26206017 C-4.84097697 262.05209403 -4.87490736 265.84200228 -4.90830708 269.63226891 C-4.94148439 272.20650511 -4.97597443 274.78072476 -5.0118227 277.35492516 C-5.09670086 283.65559377 -5.16507193 289.95627873 -5.22080708 296.25726891 C-7.53080708 296.25726891 -9.84080708 296.25726891 -12.22080708 296.25726891 C-12.31232555 259.52551034 -12.38282694 222.79376892 -12.42506839 186.06191944 C-12.43007133 181.72721478 -12.43524861 177.39251034 -12.44053364 173.05780602 C-12.44158288 172.1948299 -12.44263212 171.33185378 -12.44371316 170.44272687 C-12.46112719 156.46220636 -12.49267036 142.48175151 -12.52941826 128.50126997 C-12.56679994 114.16026255 -12.58903705 99.81928957 -12.59716105 85.47823542 C-12.6026546 76.62616565 -12.62001689 67.77428148 -12.65247294 58.92226883 C-12.67358663 52.85539389 -12.68001428 46.78861516 -12.67481259 40.72170613 C-12.67224587 37.21927347 -12.67623134 33.71716554 -12.69762897 30.21479034 C-12.71744381 26.41963142 -12.71277631 22.62527547 -12.70182514 18.83009911 C-12.71347651 17.72017926 -12.72512787 16.61025941 -12.73713231 15.46670562 C-12.67907038 8.05490223 -12.67907038 8.05490223 -10.44074345 4.15896702 C-7.0724727 1.27355364 -4.44757344 0.00865764 0 0 Z " fill="#BEE9F5" transform="translate(129.2208070755005,36.74273109436035)"/>
<path d="M0 0 C4.95 0 9.9 0 15 0 C15.09765625 2.08333333 15.1953125 4.16666667 15.29296875 6.25 C16.56304104 11.18994968 18.69906207 15.51362275 23.07788086 18.34228516 C25.47748936 19.46269153 27.88465216 20.41235105 30.375 21.3125 C31.2 21.63283203 32.025 21.95316406 32.875 22.28320312 C34.49202905 22.9107644 36.11340296 23.52726399 37.73925781 24.1315918 C39.80743876 24.92603236 41.80697334 25.80400744 43.8203125 26.7265625 C48.23167721 28.49327613 51.50290356 28.48841953 56 27 C58.01640769 25.53028045 59.69337253 24.00265759 61.39453125 22.1796875 C63 21 63 21 64.9609375 21.1171875 C68.80222518 22.78027374 71.51712937 25.68243212 74 29 C74.25 31.5625 74.25 31.5625 73 34 C72.154375 34.886875 71.30875 35.77375 70.4375 36.6875 C67.41910473 40.09196908 67.34566387 43.12508692 67.5703125 47.55859375 C68.08566065 50.48670826 69.27533372 52.70176339 70.9296875 55.16015625 C72.2120438 57.36449864 72.78529484 59.47486329 73.4375 61.9375 C74.82073224 66.9232162 77.05143015 70.78636717 80 75 C80.99 76.485 80.99 76.485 82 78 C85.33850055 78.8071582 85.33850055 78.8071582 89.125 79.1875 C91.39375 79.455625 93.6625 79.72375 96 80 C96 85.28 96 90.56 96 96 C94.30875 96.0825 92.6175 96.165 90.875 96.25 C85.88953567 96.71137973 82.8147226 97.56674966 79 101 C76.48435425 104.66784992 75.23522061 108.16436781 74.0625 112.4375 C72.94107818 116.30402389 72.11768178 118.83655309 69.75 122.125 C67.0739834 126.52131298 67.51874178 130.97440182 68 136 C69.0478328 139.14349841 69.57913668 139.73251185 72.0625 141.6875 C73.031875 142.450625 74.00125 143.21375 75 144 C72.94405634 148.56763837 69.9858839 151.97384086 66 155 C61.60596034 155.31385998 59.21074855 152.77686361 56 150 C53.23547967 148.61773984 50.9538637 148.90474613 47.875 148.9375 C46.23144531 148.95103516 46.23144531 148.95103516 44.5546875 148.96484375 C43.29011719 148.98224609 43.29011719 148.98224609 42 149 C42 149.66 42 150.32 42 151 C40.90300781 151.40992188 39.80601562 151.81984375 38.67578125 152.2421875 C37.22134314 152.78642886 35.76691667 153.33070133 34.3125 153.875 C33.59126953 154.14441406 32.87003906 154.41382813 32.12695312 154.69140625 C30.71767309 155.21908188 29.30928119 155.74913651 27.90185547 156.28173828 C26.32181181 156.87846337 24.73758489 157.46409774 23.15234375 158.046875 C19.71288208 159.56997599 17.61901835 161.67376774 16 165 C15.29229285 169.04994459 15.13764554 172.87063366 15 177 C10.05 177 5.1 177 0 177 C-0.48828125 173.97265625 -0.9765625 170.9453125 -1.46484375 167.91796875 C-1.93871921 164.95066644 -1.93871921 164.95066644 -3 162 C-7.6183814 159.02021099 -12.3808944 156.89542596 -17.5 154.9375 C-21.26143105 153.47558298 -25.00593436 152.00599325 -28.6875 150.3515625 C-32.97693322 148.60139281 -36.4518496 147.95352292 -41 149 C-43.06286757 150.43468589 -44.69652563 151.9362168 -46.39453125 153.78515625 C-48 155 -48 155 -50.0390625 154.83203125 C-53.03346108 153.56149958 -54.80823181 151.36036574 -57 149 C-57.598125 148.401875 -58.19625 147.80375 -58.8125 147.1875 C-59.4003125 146.5996875 -59.4003125 146.5996875 -60 146 C-59.11067402 143.9788046 -58.18375492 142.2171649 -56.75390625 140.52734375 C-53.16606826 136.22803647 -52.44247628 132.99015007 -52.43359375 127.4296875 C-52.84954159 124.83896239 -52.84954159 124.83896239 -54.8828125 122.6953125 C-57.94372934 118.79857336 -58.76747891 114.62203198 -59.97851562 109.8828125 C-61.7022238 103.73085739 -64.63873598 100.57417601 -70 97 C-73.65912601 96.43868689 -77.30257122 96.26099497 -81 96 C-81 90.72 -81 85.44 -81 80 C-78.00520833 79.54427083 -75.01041667 79.08854167 -72.015625 78.6328125 C-67.30158408 77.64359666 -65.58492403 76.87738604 -62.875 72.8125 C-61.3706438 69.98315314 -60.46232005 67.26176021 -59.703125 64.140625 C-58.72095201 61.15045391 -57.2765544 58.44120744 -55.875 55.625 C-52.29490893 48.06466376 -52.29490893 48.06466376 -53 40 C-54.69903432 37.70178933 -56.47393269 35.76985206 -58.56640625 33.82421875 C-60 32 -60 32 -59.84375 29.84765625 C-58.72898197 27.4065207 -57.44781545 26.94754146 -55 26 C-55 25.34 -55 24.68 -55 24 C-54.34 24 -53.68 24 -53 24 C-53 23.34 -53 22.68 -53 22 C-50.875 21.1875 -50.875 21.1875 -48 21 C-44.8125 23.375 -44.8125 23.375 -42 26 C-39.11584117 27.44207941 -36.58278472 27.09394887 -33.375 27.0625 C-31.59222656 27.04896484 -31.59222656 27.04896484 -29.7734375 27.03515625 C-28.40058594 27.01775391 -28.40058594 27.01775391 -27 27 C-27 26.34 -27 25.68 -27 25 C-26.16597656 24.68546875 -25.33195312 24.3709375 -24.47265625 24.046875 C-22.13675867 23.15853824 -19.80488855 22.25955893 -17.4765625 21.3515625 C-15.4181041 20.55130789 -13.35263941 19.76813733 -11.2734375 19.0234375 C-6.63467265 17.23929717 -3.8259362 15.58491206 -1.640625 11.015625 C-0.48159764 7.36892917 -0.23459499 3.81216857 0 0 Z M24 70 C21.22810842 73.21897087 21 74.6935573 21 79 C21.7729928 83.30434937 23.36781819 85.44974469 27 88 C30.8584781 89.25497975 34.0027241 89.42107205 37.8125 87.8125 C40.78319217 85.35106935 42.50530275 83.30741415 43.875 79.6875 C44.05492501 75.81911223 42.81508529 73.379814 41 70 C38.64036687 67.47182165 36.99008033 66.99724454 33.625 66.0625 C29.060235 65.98379716 27.42209835 67.04455143 24 70 Z " fill="#7C7C7C" transform="translate(368,239)"/>
<path d="M0 0 C0.99 0 1.98 0 3 0 C3 39.27 3 78.54 3 119 C3.99 119.33 4.98 119.66 6 120 C6 120.66 6 121.32 6 122 C9.93309734 121.90636389 13.86564085 121.80024855 17.7980957 121.68261719 C19.7929536 121.62555908 21.7880854 121.57835558 23.78320312 121.53125 C25.03681641 121.49257813 26.29042969 121.45390625 27.58203125 121.4140625 C28.73936768 121.3826416 29.8967041 121.3512207 31.08911133 121.31884766 C34.19127028 121.20528967 34.19127028 121.20528967 37 119 C37.43684048 116.34345368 37.43684048 116.34345368 37.3371582 113.19262695 C37.33758621 111.97408524 37.33801422 110.75554352 37.3384552 109.50007629 C37.33203318 108.84676645 37.32561115 108.19345661 37.31899452 107.5203495 C37.30063749 105.4722421 37.30327849 103.42515895 37.3120575 101.3769989 C37.33387851 95.55366382 37.32308354 89.73071587 37.28491211 83.9074707 C37.26303825 80.34515026 37.27042978 76.78383318 37.2953701 73.22154808 C37.30068407 71.21252022 37.27300061 69.20349199 37.2447052 67.19465637 C37.29837905 60.49226128 37.50977212 55.99792711 42.358078 51.10612488 C44 50 44 50 47.625 49.25 C51 50 51 50 53.12255859 51.99804688 C55.57445681 55.91853329 55.95109871 59.24220305 56.4140625 63.78125 C56.51463959 64.6311853 56.61521667 65.48112061 56.71884155 66.35681152 C57.03666578 69.06966499 57.33152758 71.78441479 57.625 74.5 C57.92971996 77.17863353 58.23916337 79.85669034 58.54919434 82.53471375 C58.75012386 84.27677558 58.94846477 86.01913802 59.14416504 87.76179504 C59.69155617 92.58752432 60.34353904 97.37439643 61.1328125 102.16796875 C61.97489897 107.42026183 62.30399836 112.4981616 62.25 117.8125 C62.26160156 118.98329102 62.26160156 118.98329102 62.2734375 120.17773438 C62.2128052 138.35226714 52.09938252 152.58779061 40.875 165.9375 C37.63819101 169.9162145 35.10973998 174.06093762 32.6875 178.5625 C32.36185059 179.16376709 32.03620117 179.76503418 31.70068359 180.38452148 C29.18634827 185.2229499 27.77265906 189.68202283 26 195 C2.9 195 -20.2 195 -44 195 C-44.6886905 166.59151702 -45.12835208 138.20423775 -45.18167114 109.78931427 C-45.18748759 107.44250903 -45.19719097 105.09574952 -45.20800781 102.7489624 C-45.22469924 99.01225926 -45.23089614 95.27567725 -45.22919655 91.53893852 C-45.23003171 90.15684841 -45.23415509 88.77475558 -45.24188805 87.39268684 C-45.29284899 77.54267224 -44.39512896 69.20717292 -40.875 59.9375 C-40.52179687 58.99777344 -40.16859375 58.05804688 -39.8046875 57.08984375 C-39.53914063 56.40019531 -39.27359375 55.71054687 -39 55 C-38.34 55 -37.68 55 -37 55 C-36.90332031 54.30519531 -36.80664062 53.61039062 -36.70703125 52.89453125 C-33.73972081 40.74659181 -23.5432066 29.65625627 -16 20 C-15.24154785 19.02305176 -15.24154785 19.02305176 -14.46777344 18.02636719 C-11.33816738 13.99621344 -8.19066556 9.98203126 -5 6 C-4.56413574 5.42926758 -4.12827148 4.85853516 -3.67919922 4.27050781 C-2.52010827 2.79168255 -1.26567523 1.38869803 0 0 Z " fill="#F8CFA0" transform="translate(99,225)"/>
<path d="M0 0 C12.132991 8.45853196 20.82276761 19.52502678 23.62109375 34.2734375 C25.81929507 51.58670456 22.56881068 65.44908502 12.0625 79.75 C11.40701172 80.71486328 11.40701172 80.71486328 10.73828125 81.69921875 C3.60652203 91.22964774 -9.43361733 97.09427715 -20.88671875 99.32421875 C-36.38313958 101.48697147 -51.37803804 97.50024661 -64.0078125 88.23046875 C-74.89470414 79.39263086 -82.30110833 65.70478449 -83.9375 51.75 C-85.03605376 36.56641771 -81.26500664 21.90002107 -71.64453125 9.88671875 C-52.17432938 -10.5121096 -24.18597151 -14.41080803 0 0 Z " fill="#050704" transform="translate(213.9375,60.25)"/>
<path d="M0 0 C33 0 66 0 100 0 C100.33 6.6 100.66 13.2 101 20 C107.41623811 27.68828783 107.41623811 27.68828783 116.25 29.625 C117.14203125 29.69976562 118.0340625 29.77453125 118.953125 29.8515625 C119.62859375 29.90054687 120.3040625 29.94953125 121 30 C122.37283042 33.07535458 123.71989793 36.16134281 125.0625 39.25 C125.45244141 40.12269531 125.84238281 40.99539063 126.24414062 41.89453125 C126.79038086 43.16103516 126.79038086 43.16103516 127.34765625 44.453125 C127.85824585 45.61569824 127.85824585 45.61569824 128.37915039 46.80175781 C129 49 129 49 128 53 C84.77 53 41.54 53 -3 53 C-1 44 -1 44 0.11328125 40.1015625 C1.34688034 35.21307873 1.2543123 30.38943897 1.1875 25.375 C1.18685547 24.47910156 1.18621094 23.58320313 1.18554688 22.66015625 C1.13706644 15.04334049 0.54552186 7.63730601 0 0 Z " fill="#A4CBDD" transform="translate(173,319)"/>
<path d="M0 0 C1.99565639 1.45172749 3.87762369 2.98629712 5.765625 4.57421875 C6.796875 5.31671875 7.828125 6.05921875 8.890625 6.82421875 C15.61525047 13.2564692 20.61275732 22.70952288 21.234375 32.08984375 C21.26836281 33.6676371 21.27814841 35.24610906 21.265625 36.82421875 C21.26062988 37.65542236 21.25563477 38.48662598 21.25048828 39.34301758 C20.89614283 51.93694353 15.04483761 61.67090492 6.140625 70.26171875 C-4.03031733 78.85882087 -16.46894839 80.41425413 -29.234375 79.57421875 C-40.59090626 77.92996024 -48.81674875 72.0928939 -56.1484375 63.44921875 C-63.96258394 52.67915924 -66.09310835 41.57336037 -64.234375 28.57421875 C-61.26000701 16.15492786 -54.56525373 7.40808764 -44.1015625 0.3046875 C-30.74928547 -7.75397561 -13.40331921 -8.55281733 0 0 Z M-5.234375 19.57421875 C-8.00626658 22.79318962 -8.234375 24.26777605 -8.234375 28.57421875 C-7.4613822 32.87856812 -5.86655681 35.02396344 -2.234375 37.57421875 C1.6241031 38.8291985 4.7683491 38.9952908 8.578125 37.38671875 C11.54881717 34.9252881 13.27092775 32.8816329 14.640625 29.26171875 C14.82055001 25.39333098 13.58071029 22.95403275 11.765625 19.57421875 C9.40599187 17.0460404 7.75570533 16.57146329 4.390625 15.63671875 C-0.17414 15.55801591 -1.81227665 16.61877018 -5.234375 19.57421875 Z " fill="#E4E4E4" transform="translate(397.234375,289.42578125)"/>
<path d="M0 0 C0.66 0 1.32 0 2 0 C3.53605362 7.63912383 4.2134487 15.03545021 4.25 22.8125 C4.25902344 23.59987549 4.26804687 24.38725098 4.27734375 25.19848633 C4.18559416 43.37063852 -5.89811957 57.58481972 -17.125 70.9375 C-20.36180899 74.9162145 -22.89026002 79.06093762 -25.3125 83.5625 C-25.80097412 84.46440063 -25.80097412 84.46440063 -26.29931641 85.38452148 C-28.81365173 90.2229499 -30.22734094 94.68202283 -32 100 C-55.1 100 -78.2 100 -102 100 C-102 83.5 -102 67 -102 50 C-96.98629911 51.11415575 -92.26583921 52.19284997 -87.38671875 53.6015625 C-80.19603173 55.40920707 -73.19271963 55.44138878 -65.8125 55.375 C-64.51119141 55.38660156 -63.20988281 55.39820313 -61.86914062 55.41015625 C-54.68051559 55.38827307 -48.58893249 54.95460381 -42 52 C-41.36747314 51.72349609 -40.73494629 51.44699219 -40.08325195 51.16210938 C-38.28477239 50.33945875 -36.51652251 49.45170247 -34.75 48.5625 C-33.58984375 47.98628906 -32.4296875 47.41007812 -31.234375 46.81640625 C-28.19901403 45.11176513 -25.69997504 43.17817135 -23 41 C-22.34 41 -21.68 41 -21 41 C-21 40.01 -21 39.02 -21 38 C-19.8508139 36.8508139 -18.69535525 35.70716047 -17.5078125 34.59765625 C-14.07470364 30.95998391 -11.23495934 26.46991867 -9 22 C-8.34 22 -7.68 22 -7 22 C-6.896875 21.175 -6.79375 20.35 -6.6875 19.5 C-5.88876529 15.43371422 -4.52028951 11.83998008 -3 8 C-2.43469777 6.50105382 -1.87209254 5.00108709 -1.3125 3.5 C-0.879375 2.345 -0.44625 1.19 0 0 Z " fill="#E0AA7F" transform="translate(157,320)"/>
<path d="M0 0 C0.99902344 -0.020625 1.99804688 -0.04125 3.02734375 -0.0625 C9.54168306 -0.0965619 14.71697285 0.84571911 20.75 3.25 C22.08173757 3.69233367 23.41486957 4.13051531 24.75 4.5625 C38.307414 9.78102841 47.99330637 21.10238692 54.0390625 34 C59.4742174 47.13821617 59.58680352 62.53459249 55.15234375 76.02734375 C52.72087768 81.6149747 49.41769289 86.40923934 45.75 91.25 C44.986875 92.3225 44.22375 93.395 43.4375 94.5 C33.2918118 104.88163443 19.5056027 112.31433749 4.83569336 112.68164062 C-10.9874281 112.71838517 -22.88275189 109.66997621 -35.25 99.25 C-36.11496094 98.57839844 -36.97992188 97.90679687 -37.87109375 97.21484375 C-46.68185986 89.93764284 -52.76563197 77.20271866 -55.25 66.25 C-55.50874325 63.49246781 -55.53741085 60.76808819 -55.5 58 C-55.49105713 57.25129639 -55.48211426 56.50259277 -55.47290039 55.73120117 C-55.13357897 39.41036843 -49.5839234 26.40824453 -38.08203125 14.87890625 C-26.50901865 4.135958 -15.54978116 0.0790332 0 0 Z M-33.125 29.4375 C-40.8119059 40.32882691 -43.15599502 52.19334588 -41.25 65.25 C-38.37680597 76.63850698 -31.34829309 86.47250377 -21.59765625 93.03515625 C-19.18310224 94.31126106 -16.81992435 95.33248048 -14.25 96.25 C-13.05375 96.683125 -11.8575 97.11625 -10.625 97.5625 C2.11342807 100.18738821 14.28571363 98.61666349 25.34375 91.60546875 C34.8603894 84.57901666 40.01841625 76.44475125 43.75 65.25 C45.13258923 51.67087361 43.55918077 40.62613575 35.4375 29.375 C29.1377163 21.8532755 19.60368334 14.95913446 9.75 13.25 C-7.563497 12.14179085 -21.3706098 15.59683275 -33.125 29.4375 Z " fill="#050505" transform="translate(374.25,270.75)"/>
<path d="M0 0 C9.24 0 18.48 0 28 0 C28.18084986 12.52628719 28.32757076 25.05170528 28.41449738 37.57900333 C28.45622131 43.39618045 28.51279989 49.21241697 28.60351562 55.02905273 C28.69053932 60.64419714 28.73829516 66.25843785 28.75901794 71.87420464 C28.77378233 74.01490951 28.80261522 76.15556574 28.84584045 78.29588509 C28.90406353 81.29867909 28.91190747 84.29775634 28.90820312 87.30102539 C28.95134644 88.62380745 28.95134644 88.62380745 28.99536133 89.97331238 C28.94434719 93.80399772 28.7845435 96.09066002 26.22605896 99.05611992 C24.06433105 100.93040466 24.06433105 100.93040466 21.90727997 102.53507137 C19.53711078 104.35553232 18.29752559 106.32862379 17 109 C16.67 109.66 16.34 110.32 16 111 C15.48805363 117.14335649 15.97787913 120.05853722 20 125 C20.8971875 125.7734375 20.8971875 125.7734375 21.8125 126.5625 C22.204375 127.036875 22.59625 127.51125 23 128 C22.53549837 131.82882061 21.22981188 134.92163592 19.5625 138.375 C17.49509662 142.65791925 16.34695005 146.28567484 15 151 C10.05 151 5.1 151 0 151 C0 101.17 0 51.34 0 0 Z " fill="#33C633" transform="translate(279,155)"/>
<path d="M0 0 C1.21042969 -0.00128906 2.42085937 -0.00257813 3.66796875 -0.00390625 C4.94285156 -0.00003906 6.21773437 0.00382813 7.53125 0.0078125 C9.44357422 0.00201172 9.44357422 0.00201172 11.39453125 -0.00390625 C13.21017578 -0.00197266 13.21017578 -0.00197266 15.0625 0 C16.18205078 0.00112793 17.30160156 0.00225586 18.45507812 0.00341797 C21.03125 0.1328125 21.03125 0.1328125 22.03125 1.1328125 C22.12722204 2.72703286 22.15312924 4.325517 22.15150452 5.92262268 C22.15287918 6.95893829 22.15425385 7.99525391 22.15567017 9.06297302 C22.15207489 10.20951859 22.14847961 11.35606415 22.14477539 12.53735352 C22.14492142 13.73718872 22.14506744 14.93702393 22.1452179 16.17321777 C22.14463894 19.47266441 22.13960978 22.77204914 22.13264394 26.0714848 C22.12640973 29.51615547 22.12580655 32.96082688 22.12461853 36.40550232 C22.12150541 42.9326398 22.11329229 49.45976061 22.10326904 55.98689073 C22.0921073 63.41603266 22.0865973 70.84517536 22.08157361 78.27432358 C22.07110966 93.56049786 22.05276442 108.84664917 22.03125 124.1328125 C12.46125 124.1328125 2.89125 124.1328125 -6.96875 124.1328125 C-6.99129717 108.11287399 -7.00972926 92.09294896 -7.02056217 76.072999 C-7.02572509 68.6351674 -7.03276771 61.19734633 -7.04418945 53.75952148 C-7.05413641 47.27899908 -7.06060346 40.79848431 -7.06283849 34.31795448 C-7.06414558 30.88450708 -7.0672313 27.4510815 -7.07448006 24.01764107 C-7.08249416 20.19087429 -7.08274113 16.36412915 -7.08227539 12.53735352 C-7.08587067 11.39080795 -7.08946594 10.24426239 -7.09317017 9.06297302 C-7.0917955 8.02665741 -7.09042084 6.9903418 -7.08900452 5.92262268 C-7.08992631 5.01650018 -7.0908481 4.11037767 -7.09179783 3.17679691 C-6.83143688 -1.14813702 -3.63042786 0.0036576 0 0 Z " fill="#FEB604" transform="translate(243.96875,181.8671875)"/>
<path d="M0 0 C9.57 0 19.14 0 29 0 C29 37.62 29 75.24 29 114 C15 120 15 120 11 120 C9.51988359 118.80331014 8.0382749 117.60192205 6.66015625 116.2890625 C4.61633999 114.57965067 4.61633999 114.57965067 0 113 C0 75.71 0 38.42 0 0 Z " fill="#FEB603" transform="translate(320,133)"/>
<path d="M0 0 C0.77777298 -0.01007584 1.55554596 -0.02015167 2.35688782 -0.03053284 C4.92654835 -0.05901307 7.49562116 -0.06488994 10.06542969 -0.06811523 C11.85659017 -0.07775853 13.64774828 -0.08785118 15.43890381 -0.09837341 C19.1948392 -0.1163365 22.95056765 -0.12189449 26.70654297 -0.12011719 C31.50632515 -0.11981283 36.30477073 -0.16071628 41.1042366 -0.21243382 C44.80531841 -0.24589084 48.50608077 -0.25187185 52.20729828 -0.25028801 C53.9758641 -0.25381584 55.74443927 -0.26701661 57.51285553 -0.29028511 C74.20274194 -0.48927612 74.20274194 -0.48927612 79.98626709 4.90345764 C82.48380102 7.96256203 83.07788679 10.41096167 83.67480469 14.24829102 C83.06384 18.6996052 81.1660345 22.04424958 78.23730469 25.43579102 C74.07970577 28.56674362 70.46227807 28.87133368 65.42114258 28.83984375 C64.64976456 28.846707 63.87838654 28.85357025 63.08363342 28.86064148 C60.54222024 28.87889277 58.00142539 28.87507445 55.45996094 28.86938477 C53.68785909 28.87394745 51.91575901 28.87925329 50.1436615 28.88526917 C46.43237106 28.89419703 42.72129585 28.89178095 39.01000977 28.88183594 C34.26077484 28.8703479 29.51228363 28.89055661 24.7631464 28.91975307 C21.10419518 28.93812495 17.44542186 28.93782064 13.78643608 28.93211555 C12.03579096 28.93196245 10.28513369 28.93799754 8.53453255 28.95040703 C6.08350494 28.96533392 3.63384693 28.9546286 1.18286133 28.9375 C0.46422913 28.94716797 -0.25440308 28.95683594 -0.99481201 28.96679688 C-6.03031989 28.89334209 -8.86089949 27.55693856 -12.76269531 24.43579102 C-15.27498514 21.49359063 -16.5953284 18.30981825 -17.32519531 14.49829102 C-16.39996358 9.46091826 -13.78356375 5.43109073 -10.15509033 1.848526 C-6.8343927 -0.11238166 -3.74952011 -0.00697874 0 0 Z " fill="#02FDFD" transform="translate(54.7626953125,434.564208984375)"/>
<path d="M0 0 C9.24 0 18.48 0 28 0 C28 30.03 28 60.06 28 91 C18.76 91 9.52 91 0 91 C0 60.97 0 30.94 0 0 Z " fill="#33C633" transform="translate(196,215)"/>
<path d="M0 0 C9.24 0 18.48 0 28 0 C28 18.48 28 36.96 28 56 C24.37 56 20.74 56 17 56 C15.1183228 45.11315336 15.1183228 45.11315336 14.59765625 40.21484375 C13.61950441 31.0574794 12.26362948 23.06059951 5.375 16.5 C4.59125 16.005 3.8075 15.51 3 15 C2.01 14.34 1.02 13.68 0 13 C0 8.71 0 4.42 0 0 Z " fill="#FCB606" transform="translate(154,249)"/>
<path d="M0 0 C1.27141846 -0.00945648 2.54283691 -0.01891296 3.8527832 -0.02865601 C5.24170238 -0.02328631 6.63061873 -0.01713337 8.01953125 -0.01025391 C9.44295399 -0.01227479 10.86637572 -0.01518636 12.28979492 -0.01895142 C15.27239849 -0.02337412 18.25473246 -0.01694576 21.23730469 -0.00292969 C25.06088216 0.01416256 28.88382791 0.00432104 32.7073822 -0.01364708 C35.64649212 -0.02448659 38.58545222 -0.0210379 41.52456665 -0.0132637 C42.93437779 -0.01126214 44.34420253 -0.01371947 45.7539978 -0.02070236 C47.72401673 -0.02831864 49.69408334 -0.0146522 51.6640625 0 C52.78530518 0.00238678 53.90654785 0.00477356 55.06176758 0.00723267 C57.83203125 0.38818359 57.83203125 0.38818359 59.6940918 1.69369507 C61.61071803 4.54771437 61.18732448 7.07211348 60.83203125 10.38818359 C59.28940312 12.4917674 58.15094808 13.22872518 55.83203125 14.38818359 C53.94366665 14.48953062 52.05171431 14.52657814 50.16064453 14.53344727 C48.3783696 14.54301704 48.3783696 14.54301704 46.56008911 14.55278015 C45.27053314 14.55389297 43.98097717 14.5550058 42.65234375 14.55615234 C41.33289764 14.55948074 40.01345154 14.56280914 38.65402222 14.5662384 C35.85804426 14.57223078 33.06209721 14.57407823 30.26611328 14.57348633 C26.68599965 14.57338479 23.10608471 14.58702795 19.52601814 14.60425854 C16.77219739 14.61538675 14.01842452 14.61740527 11.26458359 14.6168766 C9.30366295 14.61862883 7.34275725 14.62946597 5.38186646 14.64042664 C4.18737885 14.63735001 2.99289124 14.63427338 1.76220703 14.63110352 C0.18573898 14.63324104 0.18573898 14.63324104 -1.4225769 14.63542175 C-4.20924587 14.38446635 -5.84146557 13.91430741 -8.16796875 12.38818359 C-9.69288873 9.33834364 -9.40359423 6.7458467 -9.16796875 3.38818359 C-6.75871035 -0.23253518 -4.12439934 0.00877957 0 0 Z " fill="#090C0D" transform="translate(304.16796875,62.61181640625)"/>
<path d="M0 0 C1.72198608 -0.01407143 1.72198608 -0.01407143 3.47875977 -0.02842712 C4.71424561 -0.01719315 5.94973145 -0.00595917 7.22265625 0.00561523 C8.49488037 0.00416 9.76710449 0.00270477 11.07788086 0.00120544 C13.76828997 0.00286581 16.45728633 0.01235755 19.14746094 0.03515625 C22.59094652 0.06354166 26.03354535 0.06080261 29.47709656 0.04806614 C32.76734008 0.0394282 36.05744047 0.0545588 39.34765625 0.06811523 C40.58314209 0.0651796 41.81862793 0.06224396 43.09155273 0.05921936 C44.23954346 0.07190353 45.38753418 0.08458771 46.5703125 0.09765625 C47.579729 0.10305923 48.58914551 0.10846222 49.62915039 0.11402893 C52.68785402 0.56048818 54.07507854 1.3708537 56.28515625 3.50170898 C56.74609375 5.69311523 56.74609375 5.69311523 56.66015625 8.06420898 C56.64726562 8.84924805 56.634375 9.63428711 56.62109375 10.44311523 C56.28515625 12.50170898 56.28515625 12.50170898 54.28515625 14.50170898 C51.83842468 14.77586365 51.83842468 14.77586365 48.72143555 14.80810547 C46.97403328 14.83208656 46.97403328 14.83208656 45.19132996 14.85655212 C43.92678482 14.86191483 42.66223969 14.86727753 41.359375 14.87280273 C40.06449661 14.88183121 38.76961823 14.89085968 37.4355011 14.90016174 C34.69078072 14.91666481 31.94618247 14.92435384 29.20141602 14.92724609 C25.69049167 14.93262286 22.18072186 14.97026479 18.6701231 15.01599026 C15.31654569 15.05296456 11.96314934 15.05427772 8.609375 15.06030273 C6.72166634 15.08960121 6.72166634 15.08960121 4.79582214 15.11949158 C-4.91518646 15.06923501 -4.91518646 15.06923501 -8.01245117 12.12695312 C-9.71484375 9.50170898 -9.71484375 9.50170898 -10.27734375 6.93920898 C-8.9856946 1.34206265 -5.32383336 0.0008764 0 0 Z " fill="#090D0F" transform="translate(260.71484375,92.498291015625)"/>
<path d="M0 0 C10.89 0 21.78 0 33 0 C30.4906579 11.29203947 26.25311942 19.79457589 17 27 C11.25294402 30.49755813 6.8080567 33 0 33 C0 22.11 0 11.22 0 0 Z " fill="#34C333" transform="translate(191,112)"/>
<path d="M0 0 C10.88344535 1.81390756 19.80587162 7.21266017 26.56640625 16.046875 C29.98339778 21.31006195 33 26.63503048 33 33 C22.11 33 11.22 33 0 33 C0 22.11 0 11.22 0 0 Z " fill="#F2AF0A" transform="translate(191,66)"/>
<path d="M0 0 C0 10.56 0 21.12 0 32 C-10.56 32 -21.12 32 -32 32 C-30.75351667 20.78165005 -26.92414714 13.58272933 -18.10546875 6.50390625 C-11.59867945 1.85619961 -8.30032215 0 0 0 Z " fill="#33CA33" transform="translate(177,67)"/>
<path d="M0 0 C10.56 0 21.12 0 32 0 C32 10.56 32 21.12 32 32 C23.25367024 32 16.56766517 27.6381616 10.125 21.8125 C4.45590062 15.67097567 1.35462142 8.12772851 0 0 Z " fill="#F5B10A" transform="translate(145,113)"/>
<path d="M0 0 C3.135 -0.12375 6.27 -0.2475 9.5 -0.375 C10.95696289 -0.45693604 10.95696289 -0.45693604 12.44335938 -0.54052734 C18.48990612 -0.65491482 21.82232834 0.58721338 26.47265625 4.45654297 C29.34395534 7.35813389 29.8275662 9.89149702 30.4375 13.8125 C29.7047326 19.15123394 27.0553604 23.25294366 22.96875 26.7265625 C18.55792737 28.61857326 14.42584653 28.31709254 9.6875 28.1875 C4.8921875 28.0946875 4.8921875 28.0946875 0 28 C0 18.76 0 9.52 0 0 Z " fill="#029799" transform="translate(108,435)"/>
<path d="M0 0 C9.57 0 19.14 0 29 0 C29 37.62 29 75.24 29 114 C24 116 24 116 21 116 C21 115.34 21 114.68 21 114 C23.97 113.505 23.97 113.505 27 113 C27 76.37 27 39.74 27 2 C19.08 2 11.16 2 3 2 C3 38.3 3 74.6 3 112 C3.99 112 4.98 112 6 112 C6.33 112.99 6.66 113.98 7 115 C4.69 114.34 2.38 113.68 0 113 C0 75.71 0 38.42 0 0 Z " fill="#C29016" transform="translate(320,133)"/>
<path d="M0 0 C1.20916077 -0.00218285 1.20916077 -0.00218285 2.44274902 -0.00440979 C4.14399842 -0.00275268 5.8452631 0.00878776 7.54638672 0.02954102 C10.14745896 0.05849589 12.74649215 0.05014718 15.34765625 0.03710938 C17.00261405 0.04334721 18.65756543 0.0517385 20.3125 0.0625 C21.08863647 0.05956436 21.86477295 0.05662872 22.66442871 0.05360413 C25.93610501 0.11064244 28.26740099 0.27637422 31.14453125 1.90209961 C33.00676071 3.86568103 33.19684346 4.81692539 33.15625 7.49609375 C33.1665625 8.17671875 33.176875 8.85734375 33.1875 9.55859375 C32.65625 11.49609375 32.65625 11.49609375 31.14453125 13.09008789 C27.61806697 15.08272013 24.25796067 14.94461071 20.3125 14.9296875 C19.10333923 14.93755028 19.10333923 14.93755028 17.86975098 14.9455719 C16.16855011 14.95198403 14.46730486 14.95066554 12.76611328 14.94213867 C10.16488726 14.93362203 7.56585326 14.962409 4.96484375 14.99414062 C3.30989649 14.99575264 1.65494535 14.9951751 0 14.9921875 C-0.77613647 15.00342148 -1.55227295 15.01465546 -2.35192871 15.02622986 C-5.89466998 14.98055045 -7.94884028 14.78844309 -10.83398438 12.65258789 C-12.89834315 9.70393312 -12.9312463 8.02107155 -12.34375 4.49609375 C-9.05580125 -0.2002923 -5.31600679 -0.07694511 0 0 Z " fill="#090D0F" transform="translate(332.34375,92.50390625)"/>
<path d="M0 0 C1.21042969 -0.00128906 2.42085937 -0.00257813 3.66796875 -0.00390625 C4.94285156 -0.00003906 6.21773437 0.00382813 7.53125 0.0078125 C9.44357422 0.00201172 9.44357422 0.00201172 11.39453125 -0.00390625 C13.21017578 -0.00197266 13.21017578 -0.00197266 15.0625 0 C16.18205078 0.00112793 17.30160156 0.00225586 18.45507812 0.00341797 C21.03125 0.1328125 21.03125 0.1328125 22.03125 1.1328125 C22.12722204 2.72703286 22.15312924 4.325517 22.15150452 5.92262268 C22.15287918 6.95893829 22.15425385 7.99525391 22.15567017 9.06297302 C22.15207489 10.20951859 22.14847961 11.35606415 22.14477539 12.53735352 C22.14492142 13.73718872 22.14506744 14.93702393 22.1452179 16.17321777 C22.14463894 19.47266441 22.13960978 22.77204914 22.13264394 26.0714848 C22.12640973 29.51615547 22.12580655 32.96082688 22.12461853 36.40550232 C22.12150541 42.9326398 22.11329229 49.45976061 22.10326904 55.98689073 C22.0921073 63.41603266 22.0865973 70.84517536 22.08157361 78.27432358 C22.07110966 93.56049786 22.05276442 108.84664917 22.03125 124.1328125 C12.46125 124.1328125 2.89125 124.1328125 -6.96875 124.1328125 C-6.99129717 108.11287399 -7.00972926 92.09294896 -7.02056217 76.072999 C-7.02572509 68.6351674 -7.03276771 61.19734633 -7.04418945 53.75952148 C-7.05413641 47.27899908 -7.06060346 40.79848431 -7.06283849 34.31795448 C-7.06414558 30.88450708 -7.0672313 27.4510815 -7.07448006 24.01764107 C-7.08249416 20.19087429 -7.08274113 16.36412915 -7.08227539 12.53735352 C-7.08587067 11.39080795 -7.08946594 10.24426239 -7.09317017 9.06297302 C-7.0917955 8.02665741 -7.09042084 6.9903418 -7.08900452 5.92262268 C-7.08992631 5.01650018 -7.0908481 4.11037767 -7.09179783 3.17679691 C-6.83143688 -1.14813702 -3.63042786 0.0036576 0 0 Z M-4.96875 2.1328125 C-4.96875 41.7328125 -4.96875 81.3328125 -4.96875 122.1328125 C3.28125 122.1328125 11.53125 122.1328125 20.03125 122.1328125 C20.05379742 106.6344112 20.07222941 91.13601797 20.08306217 75.63760471 C20.08822503 68.44190955 20.09526753 61.24622528 20.10668945 54.05053711 C20.1166366 47.78096556 20.1231035 41.51140189 20.12533849 35.24182266 C20.12664555 31.92015629 20.13024997 28.59851784 20.13698006 25.27685738 C20.14418628 21.57461303 20.14524112 17.87241619 20.14477539 14.17016602 C20.14837067 13.06102341 20.15196594 11.9518808 20.15567017 10.80912781 C20.1542955 9.80646881 20.15292084 8.80380981 20.15150452 7.77076721 C20.15288721 6.45582952 20.15288721 6.45582952 20.15429783 5.11432743 C20.25061513 3.13153697 20.25061513 3.13153697 19.03125 2.1328125 C11.11125 2.1328125 3.19125 2.1328125 -4.96875 2.1328125 Z " fill="#B68713" transform="translate(243.96875,181.8671875)"/>
<path d="M0 0 C0.84397913 -0.0039821 1.68795826 -0.00796419 2.55751252 -0.01206696 C3.47968875 -0.00624128 4.40186497 -0.00041559 5.35198593 0.00558662 C6.3354562 0.00387777 7.31892646 0.00216892 8.33219886 0.00040829 C11.6365365 -0.00289304 14.94067229 0.0081278 18.2449913 0.01904488 C20.61008321 0.01960885 22.97517547 0.0192927 25.34026718 0.01815987 C31.76960786 0.01758482 38.19887428 0.0293638 44.62819767 0.04330778 C50.66391777 0.05547796 56.69964387 0.05655296 62.73537418 0.05861153 C74.69041684 0.06298891 86.64543221 0.07629918 98.60046005 0.09521675 C110.21373991 0.11357443 121.82701236 0.12773148 133.4403038 0.13623238 C134.15613185 0.13675782 134.87195989 0.13728327 135.6094797 0.13782464 C139.20057421 0.14043471 142.79166878 0.14296213 146.38276339 0.14544845 C176.17507427 0.16618229 205.9673545 0.20155766 235.75963974 0.24609566 C235.75963974 0.57609566 235.75963974 0.90609566 235.75963974 1.24609566 C233.94986255 1.25244357 233.94986255 1.25244357 232.10352421 1.25891972 C203.46970592 1.35957332 174.83590923 1.46527844 146.20213287 1.5772126 C142.67857736 1.59098234 139.15502169 1.60470941 135.63146591 1.61841011 C134.92998299 1.62113841 134.22850007 1.62386672 133.5057601 1.6266777 C122.14422672 1.67076476 110.78268348 1.71139427 99.42113284 1.75074827 C87.76501556 1.79119946 76.10891721 1.8354343 64.45282668 1.88297421 C57.90500097 1.90955957 51.35717888 1.93441233 44.80933189 1.95516968 C38.64937164 1.97475139 32.48944636 1.99889988 26.32951736 2.02658653 C24.06598101 2.03594881 21.80243699 2.04362705 19.53888893 2.04951477 C16.45336123 2.05778987 13.36791808 2.07207065 10.28242111 2.08787727 C9.38261247 2.08885538 8.48280383 2.08983349 7.55572826 2.09084123 C1.57877028 2.0617881 1.57877028 2.0617881 -4.24036026 3.24609566 C-5.27049303 4.8943081 -6.27150654 6.56113267 -7.24036026 8.24609566 C-8.56036026 8.57609566 -9.88036026 8.90609566 -11.24036026 9.24609566 C-11.24036026 103.95609566 -11.24036026 198.66609566 -11.24036026 296.24609566 C-11.57036026 296.24609566 -11.90036026 296.24609566 -12.24036026 296.24609566 C-12.33187873 259.51433709 -12.40238013 222.78259567 -12.44462158 186.05074619 C-12.44962452 181.71604153 -12.45480179 177.38133709 -12.46008682 173.04663277 C-12.46113606 172.18365665 -12.46218531 171.32068053 -12.46326634 170.43155362 C-12.48068037 156.45103311 -12.51222354 142.47057826 -12.54897144 128.49009673 C-12.58635312 114.1490893 -12.60859024 99.80811632 -12.61671424 85.46706218 C-12.62220778 76.61499241 -12.63957007 67.76310823 -12.67202613 58.91109558 C-12.69313981 52.84422064 -12.69956746 46.77744191 -12.69436577 40.71053288 C-12.69179905 37.20810022 -12.69578452 33.70599229 -12.71718216 30.2036171 C-12.736997 26.40845818 -12.7323295 22.61410222 -12.72137833 18.81892586 C-12.73302969 17.70900601 -12.74468106 16.59908616 -12.7566855 15.45553237 C-12.69862357 8.04372898 -12.69862357 8.04372898 -10.46029663 4.14779377 C-7.08183587 1.25365116 -4.46120263 -0.00465679 0 0 Z " fill="#9CB9C2" transform="translate(129.24036026000977,36.75390434265137)"/>
<path d="M0 0 C1.1125415 0.00326294 1.1125415 0.00326294 2.24755859 0.0065918 C4.50407536 0.00974403 6.75927118 -0.01367421 9.015625 -0.0390625 C10.45182126 -0.04133633 11.88802105 -0.0420386 13.32421875 -0.04101562 C14.63116699 -0.04399658 15.93811523 -0.04697754 17.28466797 -0.05004883 C20.80411903 0.33994993 22.2484578 0.7522896 24.64453125 3.32226562 C25.20703125 6.75976562 25.20703125 6.75976562 24.64453125 10.32226562 C21.98127549 13.07112604 20.29126734 14.21275552 16.49414062 14.85571289 C12.70968927 14.89129095 8.92912407 14.91621141 5.14453125 14.88476562 C3.16646484 14.92053711 3.16646484 14.92053711 1.1484375 14.95703125 C-0.12128906 14.95509766 -1.39101563 14.95316406 -2.69921875 14.95117188 C-3.85615234 14.95189697 -5.01308594 14.95262207 -6.20507812 14.95336914 C-10.30494426 14.13206149 -11.82671649 12.59391307 -14.35546875 9.32226562 C-14.17835904 -1.12720748 -8.66079427 0.03367677 0 0 Z " fill="#060809" transform="translate(265.35546875,62.677734375)"/>
<path d="M0 0 C3.1875 2.25 3.1875 2.25 5 4 C-0.75 3.125 -0.75 3.125 -3 2 C-16.4829386 0.99700091 -29.23501397 2.40403317 -40.328125 10.828125 C-42 12 -42 12 -44 12 C-44 12.66 -44 13.32 -44 14 C-44.845625 14.639375 -45.69125 15.27875 -46.5625 15.9375 C-55.31165813 22.98658475 -59.26249289 33.81394607 -60.6875 44.625 C-60.790625 45.73875 -60.89375 46.8525 -61 48 C-61.33 48 -61.66 48 -62 48 C-62.72317537 33.68112772 -61.79636539 21.51482201 -52.0703125 10.0625 C-38.20429758 -3.75119033 -18.02103758 -9.54244566 0 0 Z " fill="#AAAAAA" transform="translate(395,288)"/>
<path d="M0 0 C1.22096375 0.00022659 2.44192749 0.00045319 3.69989014 0.00068665 C5.01354553 0.0161705 6.32720093 0.03165436 7.68066406 0.04760742 C9.04257744 0.05320554 10.40449687 0.05747462 11.76641846 0.06047058 C15.34385985 0.07190256 18.92093348 0.101355 22.49822998 0.13458252 C26.15143774 0.16531925 29.80470693 0.17914814 33.45800781 0.1940918 C40.6210926 0.22463366 47.78316864 0.28335598 54.94628906 0.34057617 C54.94628906 9.58057617 54.94628906 18.82057617 54.94628906 28.34057617 C47.23339761 28.4245641 39.52217134 28.50468704 31.80921936 28.5475769 C28.21717678 28.56866062 24.62551449 28.59681336 21.03369141 28.64233398 C17.57124716 28.6859381 14.10917065 28.7097436 10.64647293 28.72008514 C8.68886424 28.73102438 6.73140258 28.76222745 4.77401733 28.79376221 C-6.22000503 28.79652835 -6.22000503 28.79652835 -11.05371094 24.34057617 C-9.05371094 24.34057617 -7.05371094 24.34057617 -5.05371094 24.34057617 C-5.05371094 25.00057617 -5.05371094 25.66057617 -5.05371094 26.34057617 C14.41628906 26.34057617 33.88628906 26.34057617 53.94628906 26.34057617 C53.94628906 18.42057617 53.94628906 10.50057617 53.94628906 2.34057617 C46.30537484 2.44864495 38.66453994 2.56073452 31.02379131 2.67991543 C27.47593455 2.73509409 23.92806947 2.78850594 20.38012695 2.83789062 C16.30182949 2.89473469 12.22368468 2.95924418 8.14550781 3.02416992 C6.87043869 3.04088242 5.59536957 3.05759491 4.28166199 3.07481384 C2.51016533 3.10473167 2.51016533 3.10473167 0.70288086 3.13525391 C-0.33858597 3.15079819 -1.3800528 3.16634247 -2.45307922 3.18235779 C-5.16782827 3.23526292 -5.16782827 3.23526292 -8.05371094 4.34057617 C-8.05371094 5.00057617 -8.05371094 5.66057617 -8.05371094 6.34057617 C-9.37371094 6.67057617 -10.69371094 7.00057617 -12.05371094 7.34057617 C-9.59336789 1.39474713 -6.26827733 -0.03885296 0 0 Z " fill="#15F3F2" transform="translate(53.0537109375,434.659423828125)"/>
<path d="M0 0 C0.99 0.495 0.99 0.495 2 1 C1.67 49.18 1.34 97.36 1 147 C4.96 147 8.92 147 13 147 C13.33 145.35 13.66 143.7 14 142 C14.49474397 140.38759606 15.01488607 138.78272319 15.5625 137.1875 C15.83191406 136.39730469 16.10132813 135.60710937 16.37890625 134.79296875 C16.68634766 133.90544922 16.68634766 133.90544922 17 133 C17.66 133 18.32 133 19 133 C18.67 130.03 18.34 127.06 18 124 C19.32 124.99 20.64 125.98 22 127 C21.38381689 130.82864339 20.23217407 133.94456167 18.5625 137.4375 C16.71973497 141.30455617 15.37259718 144.88220847 14 149 C9.38 149 4.76 149 0 149 C0 99.83 0 50.66 0 0 Z " fill="#40C13E" transform="translate(280,156)"/>
<path d="M0 0 C0.33 0 0.66 0 1 0 C1.33 11.55 1.66 23.1 2 35 C6.48980469 34.98839844 10.97960937 34.97679687 15.60546875 34.96484375 C19.19071169 34.9584105 22.775953 34.95298849 26.36119843 34.94824982 C30.14291039 34.9429744 33.92459985 34.93592715 37.70629883 34.92456055 C41.3502506 34.9136768 44.99418058 34.90771153 48.63814735 34.90512276 C50.02677058 34.9032784 51.41539265 34.89967684 52.80400658 34.89426994 C54.75238248 34.88698679 56.70078041 34.88659132 58.64916992 34.88647461 C60.31129768 34.88314369 60.31129768 34.88314369 62.00700378 34.87974548 C64.78747858 34.99146118 67.29583718 35.36621582 70 36 C70 36.33 70 36.66 70 37 C46.9 37 23.8 37 0 37 C0 24.79 0 12.58 0 0 Z " fill="#B18B6B" transform="translate(55,383)"/>
<path d="M0 0 C9.24 0 18.48 0 28 0 C28 18.48 28 36.96 28 56 C27.67 56 27.34 56 27 56 C27 38.18 27 20.36 27 2 C18.75 2 10.5 2 2 2 C2.33 5.63 2.66 9.26 3 13 C3.66 13 4.32 13 5 13 C5 13.66 5 14.32 5 15 C2.525 14.01 2.525 14.01 0 13 C0 8.71 0 4.42 0 0 Z " fill="#DCA720" transform="translate(154,249)"/>
<path d="M0 0 C0.33 0 0.66 0 1 0 C1 10.56 1 21.12 1 32 C-9.56 32 -20.12 32 -31 32 C-29.87066975 21.83602771 -29.87066975 21.83602771 -26.75 17.25 C-26.12480469 16.33089844 -25.49960938 15.41179687 -24.85546875 14.46484375 C-22.74946094 11.66717864 -20.62628502 9.30794744 -18 7 C-17.34 7.33 -16.68 7.66 -16 8 C-16.33 9.65 -16.66 11.3 -17 13 C-17.99 13 -18.98 13 -20 13 C-21.04892238 14.63631892 -22.04906703 16.30485863 -23 18 C-23.66 18.33 -24.32 18.66 -25 19 C-25.91280138 21.57437581 -25.91280138 21.57437581 -26.625 24.5625 C-26.88539063 25.57441406 -27.14578125 26.58632812 -27.4140625 27.62890625 C-27.60742188 28.41136719 -27.80078125 29.19382812 -28 30 C-27.40316406 29.98839844 -26.80632812 29.97679688 -26.19140625 29.96484375 C-17.42303064 29.87364222 -8.74797691 30.44012948 0 31 C0 20.77 0 10.54 0 0 Z " fill="#3BB23B" transform="translate(176,67)"/>
<path d="M0 0 C0.99 0 1.98 0 3 0 C3 38.61 3 77.22 3 117 C2.67 117 2.34 117 2 117 C1.67 79.38 1.34 41.76 1 3 C-0.98 3.99 -0.98 3.99 -3 5 C-1.6875 2.5 -1.6875 2.5 0 0 Z " fill="#C4AA84" transform="translate(99,225)"/>
<path d="M0 0 C1.48050591 0.00137466 1.48050591 0.00137466 2.99092102 0.0027771 C5.07122627 0.00880622 7.15152312 0.02453145 9.23168945 0.04931641 C12.42496488 0.08592814 15.61708305 0.09033494 18.81054688 0.08984375 C20.83204133 0.09967116 22.8535279 0.11132652 24.875 0.125 C26.31246834 0.12833847 26.31246834 0.12833847 27.77897644 0.13174438 C28.66362076 0.14450409 29.54826508 0.15726379 30.4597168 0.17041016 C31.62956367 0.18184555 31.62956367 0.18184555 32.82304382 0.19351196 C34.73828125 0.4609375 34.73828125 0.4609375 36.73828125 2.4609375 C20.89828125 2.7909375 5.05828125 3.1209375 -11.26171875 3.4609375 C-11.26171875 4.1209375 -11.26171875 4.7809375 -11.26171875 5.4609375 C-11.92171875 5.4609375 -12.58171875 5.4609375 -13.26171875 5.4609375 C-13.59171875 11.0709375 -13.92171875 16.6809375 -14.26171875 22.4609375 C-14.59171875 22.4609375 -14.92171875 22.4609375 -15.26171875 22.4609375 C-15.39682128 19.54272287 -15.49584925 16.63076098 -15.57421875 13.7109375 C-15.61611328 12.8859375 -15.65800781 12.0609375 -15.70117188 11.2109375 C-15.71728516 10.41171875 -15.73339844 9.6125 -15.75 8.7890625 C-15.77618408 8.0559082 -15.80236816 7.32275391 -15.8293457 6.56738281 C-15.26171875 4.4609375 -15.26171875 4.4609375 -13.37255859 2.21923828 C-8.90676308 -0.30490701 -5.04681541 -0.07616566 0 0 Z " fill="#32454A" transform="translate(322.26171875,118.5390625)"/>
<path d="M0 0 C0.33 0 0.66 0 1 0 C1.11581875 12.69116133 1.20467765 25.38219705 1.25906086 38.07377911 C1.28516136 43.96693772 1.32056862 49.85973494 1.37719727 55.75268555 C1.43149947 61.43908556 1.46141712 67.12513784 1.47438622 72.81177711 C1.48362921 74.98195687 1.50167862 77.15211745 1.52865028 79.32214928 C1.56491594 82.3606119 1.56994627 85.39763528 1.56762695 88.4362793 C1.58560333 89.33467529 1.60357971 90.23307129 1.62210083 91.15869141 C1.58731983 95.36612273 1.5150351 98.01756117 -1.53547668 101.09773254 C-2.34876938 101.7254808 -3.16206207 102.35322906 -4 103 C-4.99 102.67 -5.98 102.34 -7 102 C-5.37660195 100.29115995 -3.70680947 98.62553283 -2 97 C-1.34 97 -0.68 97 0 97 C0 64.99 0 32.98 0 0 Z " fill="#013900" transform="translate(307,155)"/>
<path d="M0 0 C0 0.66 0 1.32 0 2 C0.66 2 1.32 2 2 2 C2.1875 4.875 2.1875 4.875 2 8 C-1.44107266 10.29404844 -2.96839809 10.26293056 -7 10 C-8 9 -8 9 -8.09765625 7.15234375 C-8.06510417 5.1015625 -8.03255208 3.05078125 -8 1 C-5.29120665 -0.35439668 -2.99066732 -0.06501451 0 0 Z " fill="#AFAFAF" transform="translate(422,277)"/>
<path d="M0 0 C0.33 0 0.66 0 1 0 C1 18.81 1 37.62 1 57 C-3.95 57 -8.9 57 -14 57 C-13.67 52.71 -13.34 48.42 -13 44 C-12.67 44 -12.34 44 -12 44 C-11.67 47.96 -11.34 51.92 -11 56 C-7.37 56 -3.74 56 0 56 C0 37.52 0 19.04 0 0 Z " fill="#5F4302" transform="translate(182,249)"/>
<path d="M0 0 C0.99 0 1.98 0 3 0 C2.25 6.625 2.25 6.625 0 10 C-0.66 9.67 -1.32 9.34 -2 9 C-1.67 8.67 -1.34 8.34 -1 8 C-0.76924918 6.65252916 -0.58846937 5.29622435 -0.4375 3.9375 C-0.293125 2.638125 -0.14875 1.33875 0 0 Z M-63 9 C-32.805 9.495 -32.805 9.495 -2 10 C-5.40682564 12.27121709 -6.57797184 12.24468887 -10.57299805 12.22705078 C-11.71395432 12.22689972 -12.85491058 12.22674866 -14.03044128 12.22659302 C-15.26176285 12.21627045 -16.49308441 12.20594788 -17.76171875 12.1953125 C-19.65311333 12.19106766 -19.65311333 12.19106766 -21.5827179 12.18673706 C-24.93160422 12.17743125 -28.28021791 12.15946703 -31.62902832 12.1373291 C-35.04758347 12.11685386 -38.4661668 12.10773176 -41.88476562 12.09765625 C-48.58991919 12.0755818 -55.29494385 12.04209362 -62 12 C-62.33 11.01 -62.66 10.02 -63 9 Z " fill="#AFD0D5" transform="translate(317,97)"/>
<path d="M0 0 C3.16594536 -0.17638838 6.33060873 -0.28152076 9.5 -0.375 C10.8303125 -0.45041016 10.8303125 -0.45041016 12.1875 -0.52734375 C18.34911349 -0.66326169 21.72558721 0.50671942 26.47265625 4.45654297 C29.39375631 7.40846026 29.8843214 9.91262112 30.3125 13.9375 C29.94795884 17.5100034 28.77015209 19.90223384 27 23 C26.67 23 26.34 23 26 23 C26 21.02 26 19.04 26 17 C26.66 17 27.32 17 28 17 C27.68143549 14.99759451 27.34578768 12.99788438 27 11 C26.938125 10.278125 26.87625 9.55625 26.8125 8.8125 C25.48083256 5.84185726 22.87339632 5.22272184 20 4 C20 3.34 20 2.68 20 2 C18.80761719 2.02320313 17.61523438 2.04640625 16.38671875 2.0703125 C14.82031876 2.08907178 13.253912 2.10727181 11.6875 2.125 C10.90181641 2.14175781 10.11613281 2.15851563 9.30664062 2.17578125 C8.54931641 2.18222656 7.79199219 2.18867188 7.01171875 2.1953125 C5.96697388 2.21102295 5.96697388 2.21102295 4.90112305 2.22705078 C3 2 3 2 0 0 Z " fill="#0D7D7E" transform="translate(108,435)"/>
<path d="M0 0 C1.22096375 0.00022659 2.44192749 0.00045319 3.69989014 0.00068665 C5.01354553 0.0161705 6.32720093 0.03165436 7.68066406 0.04760742 C9.04257744 0.05320554 10.40449687 0.05747462 11.76641846 0.06047058 C15.34385985 0.07190256 18.92093348 0.101355 22.49822998 0.13458252 C26.15143865 0.16531926 29.80470699 0.17898358 33.45800781 0.1940918 C40.62093555 0.22622676 47.78356069 0.27740259 54.94628906 0.34057617 C54.94628906 0.67057617 54.94628906 1.00057617 54.94628906 1.34057617 C35.14628906 1.34057617 15.34628906 1.34057617 -5.05371094 1.34057617 C-5.38371094 2.33057617 -5.71371094 3.32057617 -6.05371094 4.34057617 C-6.71371094 4.34057617 -7.37371094 4.34057617 -8.05371094 4.34057617 C-8.05371094 5.00057617 -8.05371094 5.66057617 -8.05371094 6.34057617 C-9.37371094 6.67057617 -10.69371094 7.00057617 -12.05371094 7.34057617 C-9.59336789 1.39474713 -6.26827733 -0.03885296 0 0 Z " fill="#19B6B7" transform="translate(53.0537109375,434.659423828125)"/>
<path d="M0 0 C2.97 0.495 2.97 0.495 6 1 C6 1.66 6 2.32 6 3 C35.7 3.495 35.7 3.495 66 4 C66 4.33 66 4.66 66 5 C58.2807204 5.09286256 50.56149905 5.16384714 42.84178734 5.20724869 C39.25679099 5.22808423 35.67217806 5.25632651 32.08740234 5.30175781 C28.6249581 5.34536192 25.16288159 5.36916743 21.70018387 5.37950897 C19.74257518 5.39044821 17.78511352 5.42165128 15.82772827 5.45318604 C4.68551455 5.45598946 4.68551455 5.45598946 0 1 C0 0.67 0 0.34 0 0 Z " fill="#2ACFCF" transform="translate(42,458)"/>
<path d="M0 0 C0.33 0 0.66 0 1 0 C1.06943556 7.78843397 1.12277821 15.57679577 1.15543652 23.36546135 C1.17110901 26.9818704 1.19237553 30.59806808 1.22631836 34.21435547 C1.25885631 37.70269988 1.27684108 41.19084068 1.28463173 44.6793251 C1.29289269 46.66143769 1.31632087 48.64346809 1.33988953 50.62545776 C1.34011612 51.82655182 1.34034271 53.02764587 1.34057617 54.26513672 C1.34723801 55.32658905 1.35389984 56.38804138 1.36076355 57.48165894 C1.24171158 58.31271149 1.12265961 59.14376404 1 60 C0.01 60.66 -0.98 61.32 -2 62 C-1.83923477 61.45917786 -1.67846954 60.91835571 -1.51283264 60.36114502 C-0.91336762 57.60113377 -0.83766846 55.04678468 -0.79467773 52.22167969 C-0.7647599 50.48032745 -0.7647599 50.48032745 -0.73423767 48.70379639 C-0.71752518 47.45576233 -0.70081268 46.20772827 -0.68359375 44.921875 C-0.66281265 43.64016418 -0.64203156 42.35845337 -0.62062073 41.03790283 C-0.56555253 37.63823728 -0.51607636 34.23851262 -0.46777344 30.83874512 C-0.41744668 27.36640186 -0.36181907 23.89414395 -0.30664062 20.421875 C-0.19924578 13.61465739 -0.09775973 6.80736261 0 0 Z " fill="#28180B" transform="translate(136,284)"/>
<path d="M0 0 C2 2 2 2 2.23046875 4.0234375 C2.20919922 5.18746094 2.20919922 5.18746094 2.1875 6.375 C2.17783203 7.53128906 2.17783203 7.53128906 2.16796875 8.7109375 C2.00595151 10.91889344 1.60634894 12.87535332 1 15 C-0.875 15.625 -0.875 15.625 -3 16 C-3.66 15.34 -4.32 14.68 -5 14 C-4.67 13.34 -4.34 12.68 -4 12 C-4.99 11.67 -5.98 11.34 -7 11 C-6.34 10.34 -5.68 9.68 -5 9 C-4.35232207 6.42938689 -4.35232207 6.42938689 -4 4 C-3.01 4.33 -2.02 4.66 -1 5 C-0.67 3.35 -0.34 1.7 0 0 Z " fill="#B0D7E0" transform="translate(294,64)"/>
<path d="M0 0 C0.66 0.33 1.32 0.66 2 1 C1.67 2.65 1.34 4.3 1 6 C0.01 6 -0.98 6 -2 6 C-3.04892238 7.63631892 -4.04906703 9.30485863 -5 11 C-5.99 11.495 -5.99 11.495 -7 12 C-7.73075648 14.3140622 -8.40138258 16.64828869 -9 19 C-9.99 18.67 -10.98 18.34 -12 18 C-10.32537838 10.74330633 -5.26413461 5.07095536 0 0 Z " fill="#34B134" transform="translate(158,74)"/>
<path d="M0 0 C0.66 0 1.32 0 2 0 C4.09350689 3.4019487 4.17942163 6.05272412 4 10 C2.26337666 6.77484237 1.1094072 3.48670834 0 0 Z M-30 10 C-19.11 10 -8.22 10 3 10 C3 10.33 3 10.66 3 11 C-7.89 11 -18.78 11 -30 11 C-30 10.67 -30 10.34 -30 10 Z " fill="#221000" transform="translate(221,89)"/>
<path d="M0 0 C4.27070558 -0.08692074 8.54118458 -0.14036515 12.8125 -0.1875 C14.63491211 -0.22520508 14.63491211 -0.22520508 16.49414062 -0.26367188 C18.23920898 -0.27817383 18.23920898 -0.27817383 20.01953125 -0.29296875 C21.09307861 -0.3086792 22.16662598 -0.32438965 23.27270508 -0.34057617 C26 0 26 0 27.8737793 1.51831055 C28.24543213 2.00726807 28.61708496 2.49622559 29 3 C27.865625 2.83886719 26.73125 2.67773438 25.5625 2.51171875 C21.03099354 1.94827219 16.5625238 1.81639294 12 1.8125 C11.24460938 1.80025391 10.48921875 1.78800781 9.7109375 1.77539062 C4.48726874 1.76192756 0.02191636 2.55619905 -5 4 C-4.67 3.34 -4.34 2.68 -4 2 C-2.68 2 -1.36 2 0 2 C0 1.34 0 0.68 0 0 Z " fill="#9CBAC1" transform="translate(171,51)"/>
<path d="M0 0 C1.34362885 0.00031689 2.68728332 0.01162897 4.03076172 0.03173828 C4.73820526 0.03456818 5.4456488 0.03739807 6.17453003 0.04031372 C8.43667432 0.05151941 10.69842437 0.07662399 12.96044922 0.10205078 C14.49299559 0.11208011 16.02554816 0.12120604 17.55810547 0.12939453 C21.31737223 0.15145992 25.07634386 0.18599183 28.83544922 0.22705078 C28.83544922 0.55705078 28.83544922 0.88705078 28.83544922 1.22705078 C18.60544922 1.22705078 8.37544922 1.22705078 -2.16455078 1.22705078 C-2.82455078 2.54705078 -3.48455078 3.86705078 -4.16455078 5.22705078 C-4.83121745 6.56038411 -5.49788411 7.89371745 -6.16455078 9.22705078 C-5.18062295 0.3717003 -5.18062295 0.3717003 0 0 Z " fill="#2E4148" transform="translate(257.16455078125,62.77294921875)"/>
<path d="M0 0 C0.66 0 1.32 0 2 0 C1.835 0.495 1.67 0.99 1.5 1.5 C0.54868153 6.25659235 0.45322771 11.35968313 2 16 C1.34 16 0.68 16 0 16 C-2.1875 13.8125 -2.1875 13.8125 -4 11 C-3.89423244 6.87506507 -1.92094573 3.59133333 0 0 Z " fill="#38BA38" transform="translate(294,262)"/>
<path d="M0 0 C1.32 0.99 2.64 1.98 4 3 C3.37445159 6.86574861 2.20918871 10.07753411 0.5625 13.625 C0.13066406 14.56601562 -0.30117188 15.50703125 -0.74609375 16.4765625 C-2 19 -2 19 -4 22 C-3.88490339 20.58249437 -3.75746342 19.16598831 -3.625 17.75 C-3.55539062 16.96109375 -3.48578125 16.1721875 -3.4140625 15.359375 C-2.98492887 12.914123 -2.21399362 11.15163097 -1 9 C-0.34 9 0.32 9 1 9 C0.67 6.03 0.34 3.06 0 0 Z " fill="#3DB23A" transform="translate(298,280)"/>
<path d="M0 0 C0.66 0.99 1.32 1.98 2 3 C-1.63 6.63 -5.26 10.26 -9 14 C-9.99 13.34 -10.98 12.68 -12 12 C-11.46890625 11.55269531 -10.9378125 11.10539063 -10.390625 10.64453125 C-6.52111681 7.33285362 -3.01412695 4.14442456 0 0 Z " fill="#042304" transform="translate(218,127)"/>
<path d="M0 0 C0.66 0.33 1.32 0.66 2 1 C1.21753906 1.77085937 0.43507813 2.54171875 -0.37109375 3.3359375 C-1.39336057 4.34882573 -2.41548881 5.36185384 -3.4375 6.375 C-4.2119043 7.13683594 -4.2119043 7.13683594 -5.00195312 7.9140625 C-7.857133 10.68568936 -7.857133 10.68568936 -10 14 C-10.66 14 -11.32 14 -12 14 C-10.28842825 7.7242369 -5.24692437 3.49794958 0 0 Z " fill="#5A5A5A" transform="translate(39,423)"/>
<path d="M0 0 C0.33 0.99 0.66 1.98 1 3 C1.99 3 2.98 3 4 3 C3.67 2.34 3.34 1.68 3 1 C5.31 1.33 7.62 1.66 10 2 C7.14693203 4.32472205 4.45925163 5.7508258 1 7 C-0.65 5.02 -2.3 3.04 -4 1 C-2.68 0.67 -1.36 0.34 0 0 Z " fill="#E2A61A" transform="translate(331,247)"/>
<path d="M0 0 C2.64 0.33 5.28 0.66 8 1 C8 2.65 8 4.3 8 6 C8.99 5.67 9.98 5.34 11 5 C11.33 6.98 11.66 8.96 12 11 C7.81576108 7.49102731 3.80411834 3.91939465 0 0 Z " fill="#AFD2DC" transform="translate(215,61)"/>
<path d="M0 0 C3.99996286 1.33332095 4.83782337 3.4957827 7 7 C6.34 7 5.68 7 5 7 C3.36323743 8.9600281 3.36323743 8.9600281 2 11 C1.34 10.34 0.68 9.68 0 9 C0.32248257 7.66400079 0.65772583 6.33106622 1 5 C0.61432869 2.31850007 0.61432869 2.31850007 0 0 Z " fill="#9CBDCC" transform="translate(273,340)"/>
<path d="M0 0 C-3 2 -3 2 -5 2 C-5.474375 2.804375 -5.94875 3.60875 -6.4375 4.4375 C-8 7 -8 7 -11 8 C-11.25 5.6875 -11.25 5.6875 -11 3 C-7.85004477 -0.65394807 -4.57703263 -0.26405958 0 0 Z " fill="#A2C1CD" transform="translate(130,38)"/>
<path d="M0 0 C1.36231121 3.67824026 0.49395375 5.48481471 -1 9 C-1 10.32 -1 11.64 -1 13 C-2.65 13.66 -4.3 14.32 -6 15 C-5.01 11.7 -4.02 8.4 -3 5 C-2.34 5 -1.68 5 -1 5 C-0.67 3.35 -0.34 1.7 0 0 Z " fill="#CCAF88" transform="translate(63,275)"/>
<path d="M0 0 C2 1 2 1 3.125 3.1875 C4.58229982 7.87167799 4.50285932 10.86856653 2.5 15.375 C2.005 16.24125 1.51 17.1075 1 18 C0.67 18 0.34 18 0 18 C0 16.02 0 14.04 0 12 C0.66 12 1.32 12 2 12 C1.855625 11.13375 1.71125 10.2675 1.5625 9.375 C1.04166667 6.25 0.52083333 3.125 0 0 Z " fill="#0C7873" transform="translate(134,440)"/>
<path d="M0 0 C0.33 0.66 0.66 1.32 1 2 C-0.83539018 7.3022383 -3.2549137 10.8500395 -7 15 C-7.33 14.34 -7.66 13.68 -8 13 C-6.75506252 10.71025684 -5.47358472 8.55809966 -4.0625 6.375 C-3.67642578 5.76398438 -3.29035156 5.15296875 -2.89257812 4.5234375 C-1.93553674 3.0110758 -0.96867189 1.50493883 0 0 Z " fill="#28180F" transform="translate(138,392)"/>
<path d="M0 0 C0.33 0 0.66 0 1 0 C1 2.64 1 5.28 1 8 C1.66 8.33 2.32 8.66 3 9 C3 10.32 3 11.64 3 13 C3.66 13 4.32 13 5 13 C5 13.66 5 14.32 5 15 C2.525 14.01 2.525 14.01 0 13 C0 8.71 0 4.42 0 0 Z " fill="#C59617" transform="translate(154,249)"/>
<path d="M0 0 C1.1171875 1.703125 1.1171875 1.703125 2 4 C1.3203125 6.359375 1.3203125 6.359375 0.125 8.75 C-0.26429688 9.54921875 -0.65359375 10.3484375 -1.0546875 11.171875 C-1.36664063 11.77515625 -1.67859375 12.3784375 -2 13 C-2.33 13 -2.66 13 -3 13 C-3 10.36 -3 7.72 -3 5 C-2.34 4.67 -1.68 4.34 -1 4 C-0.34786708 1.97536745 -0.34786708 1.97536745 0 0 Z " fill="#3AB138" transform="translate(221,114)"/>
<path d="M0 0 C0.99 0 1.98 0 3 0 C2.25 6.625 2.25 6.625 0 10 C-0.66 9.67 -1.32 9.34 -2 9 C-1.67 8.67 -1.34 8.34 -1 8 C-0.76924918 6.65252916 -0.58846937 5.29622435 -0.4375 3.9375 C-0.293125 2.638125 -0.14875 1.33875 0 0 Z M-5 10 C-4.01 10.33 -3.02 10.66 -2 11 C-2.99 11.33 -3.98 11.66 -5 12 C-5 11.34 -5 10.68 -5 10 Z " fill="#B7DAE4" transform="translate(317,97)"/>
<path d="M0 0 C2.25 0 2.25 0 5 1 C6.67198768 3.52667787 7.85805571 6.19936568 9 9 C8.34 9.66 7.68 10.32 7 11 C6.66226563 10.45730469 6.32453125 9.91460937 5.9765625 9.35546875 C5.53054687 8.64003906 5.08453125 7.92460937 4.625 7.1875 C4.18414062 6.47980469 3.74328125 5.77210938 3.2890625 5.04296875 C2.21811524 3.34567961 1.11323761 1.66985642 0 0 Z " fill="#DFAA1A" transform="translate(159,264)"/>
<path d="M0 0 C0.82810826 3.31243305 1.09278428 5.65976579 1 9 C0.34 9 -0.32 9 -1 9 C-1 8.01 -1 7.02 -1 6 C-1.66 6 -2.32 6 -3 6 C-3 6.66 -3 7.32 -3 8 C-3.66 7.67 -4.32 7.34 -5 7 C-3.35 4.69 -1.7 2.38 0 0 Z " fill="#DFBC96" transform="translate(78,252)"/>
<path d="M0 0 C1.13643966 3.40931897 0.86747764 4.00335456 -0.4375 7.1875 C-0.72496094 7.90292969 -1.01242188 8.61835937 -1.30859375 9.35546875 C-1.53675781 9.89816406 -1.76492187 10.44085938 -2 11 C-2.99 10.67 -3.98 10.34 -5 10 C-3.84414715 6.08788267 -2.64465038 3.1254959 0 0 Z " fill="#34A136" transform="translate(151,82)"/>
<path d="M0 0 C0.66 0.99 1.32 1.98 2 3 C1.01 4.32 0.02 5.64 -1 7 C-0.34 7.33 0.32 7.66 1 8 C-0.65 8.66 -2.3 9.32 -4 10 C-2.8905928 6.51329166 -1.73662334 3.22515763 0 0 Z " fill="#021702" transform="translate(302,284)"/>
<path d="M0 0 C1.36682561 2.73365122 0.84683011 4.10666379 0 7 C-1.4375 8.8125 -1.4375 8.8125 -3 10 C-3.66 10 -4.32 10 -5 10 C-3.84414715 6.08788267 -2.64465038 3.1254959 0 0 Z " fill="#BBA080" transform="translate(69,265)"/>
<path d="M0 0 C1 4 1 4 0.00390625 5.703125 C-1.33072917 7.13541667 -2.66536458 8.56770833 -4 10 C-4.66 9.67 -5.32 9.34 -6 9 C-4.02 6.03 -2.04 3.06 0 0 Z " fill="#3A3C3C" transform="translate(70,238)"/>
<path d="M0 0 C1.60226148 4.00565371 0.47694566 7.08609399 -1 11 C-1.99 11.33 -2.98 11.66 -4 12 C-2.66666667 8 -1.33333333 4 0 0 Z " fill="#042404" transform="translate(223,115)"/>
<path d="M0 0 C4.95 1.98 4.95 1.98 10 4 C8.02 4.99 8.02 4.99 6 6 C3.75 5.125 3.75 5.125 2 4 C2 3.34 2 2.68 2 2 C1.34 2 0.68 2 0 2 C0 1.34 0 0.68 0 0 Z " fill="#A9C9D4" transform="translate(156,152)"/>
<path d="M0 0 C0.33 1.32 0.66 2.64 1 4 C-1.4375 6.75 -1.4375 6.75 -4 9 C-4.66 8.67 -5.32 8.34 -6 8 C-4.02 5.36 -2.04 2.72 0 0 Z " fill="#9EBCC3" transform="translate(228,136)"/>
<path d="M0 0 C0.33 0 0.66 0 1 0 C1.33 4.29 1.66 8.58 2 13 C1.01 13 0.02 13 -1 13 C-0.67 8.71 -0.34 4.42 0 0 Z " fill="#3D2701" transform="translate(169,293)"/>
<path d="M0 0 C3.625 -0.1875 3.625 -0.1875 7 0 C7 0.99 7 1.98 7 3 C4.03 3 1.06 3 -2 3 C-1.34 2.01 -0.68 1.02 0 0 Z " fill="#D4B999" transform="translate(143,275)"/>
<path d="M0 0 C0.66 0.33 1.32 0.66 2 1 C0.88200014 2.33920838 -0.24461897 3.67122556 -1.375 5 C-2.00148437 5.7425 -2.62796875 6.485 -3.2734375 7.25 C-4.12808594 8.11625 -4.12808594 8.11625 -5 9 C-5.66 9 -6.32 9 -7 9 C-5.44499019 5.18315774 -2.96404505 2.80804268 0 0 Z " fill="#1A242C" transform="translate(135,264)"/>
<path d="M0 0 C0 3 0 3 -2 5.1875 C-2.66 5.785625 -3.32 6.38375 -4 7 C-4.99 6.67 -5.98 6.34 -7 6 C-4.69 4.02 -2.38 2.04 0 0 Z " fill="#072906" transform="translate(307,251)"/>
<path d="M0 0 C0 0.66 0 1.32 0 2 C-0.66 2 -1.32 2 -2 2 C-2.33 2.99 -2.66 3.98 -3 5 C-4.65 5 -6.3 5 -8 5 C-3.16129032 0 -3.16129032 0 0 0 Z " fill="#39AB3A" transform="translate(168,69)"/>
<path d="M0 0 C2.50298434 2.93828597 3.46930939 5.17902761 4 9 C3.01 8.67 2.02 8.34 1 8 C0.67 5.36 0.34 2.72 0 0 Z " fill="#94AEB8" transform="translate(298,362)"/>
<path d="M0 0 C2.64 0 5.28 0 8 0 C7.67 1.32 7.34 2.64 7 4 C4.69 3.01 2.38 2.02 0 1 C0 0.67 0 0.34 0 0 Z " fill="#C9EEFD" transform="translate(264,320)"/>
<path d="M0 0 C1.32 0.99 2.64 1.98 4 3 C3.25 7.75 3.25 7.75 1 10 C1.020625 9.0925 1.04125 8.185 1.0625 7.25 C1.0110245 4.57327412 0.7784983 2.53011948 0 0 Z " fill="#369B35" transform="translate(298,280)"/>
<path d="M0 0 C0.99 0 1.98 0 3 0 C3 2.31 3 4.62 3 7 C2.34 5.68 1.68 4.36 1 3 C-0.98 3.99 -0.98 3.99 -3 5 C-1.6875 2.5 -1.6875 2.5 0 0 Z " fill="#CEB18E" transform="translate(99,225)"/>
<path d="M0 0 C0.33 1.32 0.66 2.64 1 4 C2.32 4.33 3.64 4.66 5 5 C3.68 5.33 2.36 5.66 1 6 C-0.32 4.35 -1.64 2.7 -3 1 C-2.01 0.67 -1.02 0.34 0 0 Z " fill="#DDA317" transform="translate(159,133)"/>
<path d="M0 0 C0.33 0 0.66 0 1 0 C1.33 2.97 1.66 5.94 2 9 C-2 10 -2 10 -4 9 C-3.01 8.34 -2.02 7.68 -1 7 C-0.26393501 3.43230448 -0.26393501 3.43230448 0 0 Z " fill="#8FB0B8" transform="translate(365,97)"/>
</svg>
